<svg xmlns="http://www.w3.org/2000/svg" x="0px" y="0px"
     width="50" height="50"
     viewBox="0 0 252 252"
     style="fill:#000000;"><g fill="none" fill-rule="nonzero" stroke="none" stroke-width="1" stroke-linecap="butt" stroke-linejoin="miter" stroke-miterlimit="10" stroke-dasharray="" stroke-dashoffset="0" font-family="none" font-weight="none" font-size="none" text-anchor="none" style="mix-blend-mode: normal"><path d="M0,252v-252h252v252z" fill="none"></path><g id="Layer_1"><g><g fill="#ffffff"><path d="M3.88828,126c0,-67.42969 54.68203,-122.11172 122.11172,-122.11172c67.42969,0 122.11172,54.68203 122.11172,122.11172c0,67.42969 -54.68203,122.11172 -122.11172,122.11172c-67.42969,0 -122.11172,-54.68203 -122.11172,-122.11172z"></path></g><path d="M166.45781,61.52344c-14.86406,0 -28.64531,7.23516 -36.91406,19.34297l-1.72266,2.16562l-1.13203,-1.47656c-8.21953,-12.6 -22.00078,-20.08125 -37.0125,-20.08125c-25.59375,0 -44.14922,18.55547 -44.14922,44.14922c0,37.8 68.41406,93.46641 73.38516,97.45313c2.3625,2.26406 5.41406,3.49453 8.71172,3.49453c3.24844,0 6.34922,-1.23047 8.71172,-3.49453c5.02031,-4.03594 74.32031,-60.58828 74.32031,-97.45313c0,-25.49531 -18.60469,-44.1 -44.19844,-44.1z" fill="#d62127"></path></g></g></g></svg>