<svg xmlns="http://www.w3.org/2000/svg" x="0px" y="0px"
     width="50" height="50"
     viewBox="0 0 252 252"
     style="fill:#000000;"><g fill="none" fill-rule="nonzero" stroke="none" stroke-width="1" stroke-linecap="butt" stroke-linejoin="miter" stroke-miterlimit="10" stroke-dasharray="" stroke-dashoffset="0" font-family="none" font-weight="none" font-size="none" text-anchor="none" style="mix-blend-mode: normal"><path d="M0,252v-252h252v252z" fill="none"></path>
     <g id="Layer_1"><g><g fill="#ffffff"><path d="M3.88828,126c0,-67.42969 54.68203,-122.11172 122.11172,-122.11172c67.42969,0 122.11172,54.68203 122.11172,122.11172c0,67.42969 -54.68203,122.11172 -122.11172,122.11172c-67.42969,0 -122.11172,-54.68203 -122.11172,-122.11172z"></path></g>
     <g><path d="M197.17031,125.60625c-1.52578,-1.91953 -2.70703,-2.70703 -3.10078,-4.62656c3.10078,-1.52578 6.20156,-7.72734 6.20156,-9.69609c-0.39375,-13.14141 -12.79687,-15.84844 -12.79687,-15.84844c0,0 0,0 -37.16016,0c-2.70703,-0.39375 -0.7875,-7.72734 0.7875,-10.43438c6.59531,-11.61562 10.43437,-22.05 10.43437,-27.51328c-2.31328,-26.72578 -20.52422,-22.05 -21.31172,-19.34297c-0.39375,27.11953 -6.59531,33.27187 -13.53516,37.94766c-6.98906,4.62656 -7.72734,10.04063 -15.84844,28.64531c-8.12109,18.60469 -23.23125,12.40312 -23.23125,12.40312c0,0 0.39375,5.80781 0.39375,60.39141c45.675,8.51484 71.61328,7.38281 83.62266,6.20156c12.00938,-1.13203 15.89766,-9.30234 15.89766,-13.53516c0,-5.02031 1.52578,-7.72734 3.49453,-8.90859c8.51484,-6.98906 5.80781,-9.30234 3.49453,-14.32266c-2.31328,-5.02031 -1.52578,-6.59531 2.31328,-10.08984c4.52812,-3.9375 1.91953,-9.35156 0.34453,-11.27109z" fill="black" ></path><path d="M85.68984,115.12266h-23.57578c-1.27969,0 -2.31328,1.03359 -2.31328,2.3625v61.52344c0,1.27969 1.03359,2.3625 2.31328,2.3625h23.57578c1.27969,0 2.31328,-1.03359 2.31328,-2.3625v-61.52344c0,-1.32891 -1.03359,-2.3625 -2.31328,-2.3625z" fill="#5c524a"></path></g></g></g></g></svg>