<svg xmlns="http://www.w3.org/2000/svg" x="0px" y="0px"
     width="40" height="40"
     viewBox="0 0 252 252"
     style="fill:#B0A18E;"><g fill="none" fill-rule="nonzero" stroke="none" stroke-width="1" stroke-linecap="butt" stroke-linejoin="miter" stroke-miterlimit="10" stroke-dasharray="" stroke-dashoffset="0" font-family="none" font-weight="none" font-size="none" text-anchor="none" style="mix-blend-mode: normal"><path d="M0,252v-252h252v252z" fill="none"></path><g><g id="surface1"><path d="M94.5,31.5c-46.2041,0 -84,31.5 -84,70.875c0,22.5791 12.0791,42 31.5,55.125l-10.5,31.5l33.0791,-20.46679c8.9209,3.13769 19.4209,4.71679 29.9209,4.71679c46.2041,0 84,-31.5 84,-70.875c0,-39.375 -37.7959,-70.875 -84,-70.875z" fill="#fd9800"></path><path d="M105,152.25c0,-32.0332 30.4541,-57.75 68.25,-57.75c1.5791,0 3.15821,0 4.7168,0c-0.5127,-3.6709 -1.55859,-7.34179 -2.625,-10.5c-0.5127,0 -1.55859,0 -2.0918,0c-43.5791,0 -78.75,30.4541 -78.75,68.25c0,7.3418 1.5791,14.1709 3.6709,21c3.6709,0 7.36231,-0.5332 11.0332,-1.0459c-2.625,-6.29589 -4.2041,-13.125 -4.2041,-19.9541z" fill="#fd9800"></path><path d="M241.5,152.25c0,-32.0332 -30.4541,-57.75 -68.25,-57.75c-37.7959,0 -68.25,25.7168 -68.25,57.75c0,32.03321 30.4541,57.75 68.25,57.75c9.4541,0 18.375,-1.5791 26.25,-4.2041l26.25,14.7041l-7.34179,-25.2041c14.17089,-10.5 23.09179,-25.7168 23.09179,-43.0459z" fill="#cfd8dc"></path><path d="M73.5,78.75c0,5.78321 -4.71679,10.5 -10.5,10.5c-5.7832,0 -10.5,-4.71679 -10.5,-10.5c0,-5.7832 4.7168,-10.5 10.5,-10.5c5.78321,0 10.5,4.7168 10.5,10.5zM126,68.25c-5.7832,0 -10.5,4.7168 -10.5,10.5c0,5.78321 4.7168,10.5 10.5,10.5c5.78321,0 10.5,-4.71679 10.5,-10.5c0,-5.7832 -4.71679,-10.5 -10.5,-10.5z" fill="#ab6909"></path><path d="M157.5,139.125c0,4.2041 -3.6709,7.875 -7.875,7.875c-4.2041,0 -7.875,-3.6709 -7.875,-7.875c0,-4.2041 3.6709,-7.875 7.875,-7.875c4.2041,0 7.875,3.6709 7.875,7.875zM196.875,131.25c-4.2041,0 -7.875,3.6709 -7.875,7.875c0,4.2041 3.6709,7.875 7.875,7.875c4.2041,0 7.875,-3.6709 7.875,-7.875c0,-4.2041 -3.6709,-7.875 -7.875,-7.875z" fill="#546e7a"></path></g></g></g></svg>