<svg xmlns="http://www.w3.org/2000/svg" x="0px" y="0px"
     width="80" height="80"
     viewBox="0 0 252 252"
     style="fill:#B0A18E;"><g fill="none" fill-rule="nonzero" stroke="none" stroke-width="1" stroke-linecap="butt" stroke-linejoin="miter" stroke-miterlimit="10" stroke-dasharray="" stroke-dashoffset="0" font-family="none" font-weight="none" font-size="none" text-anchor="none" style="mix-blend-mode: normal"><path d="M0,252v-252h252v252z" fill="none"></path><g id="Layer_1"><g><path d="M36.75,126c0,49.35 39.9,89.25 89.25,89.25c49.35,0 89.25,-39.9 89.25,-89.25c0,-49.35 -39.9,-89.25 -89.25,-89.25c-49.35,0 -89.25,39.9 -89.25,89.25" fill="#ffffff"></path><path d="M126,231c-57.75,0 -105,-47.25 -105,-105c0,-57.75 47.25,-105 105,-105c24.675,0 48.825,8.925 67.725,25.2l-13.65,15.75c-14.7,-13.125 -34.125,-19.95 -54.075,-19.95c-46.2,0 -84,37.8 -84,84c0,46.2 37.8,84 84,84z" fill="#dcedc8"></path><path d="M126,231c-57.75,0 -105,-47.25 -105,-105c0,-24.675 8.925,-48.825 25.2,-67.725l15.75,13.65c-13.125,14.7 -19.95,34.125 -19.95,54.075c0,46.2 37.8,84 84,84c46.2,0 84,-37.8 84,-84c0,-46.2 -37.8,-84 -84,-84v-21c57.75,0 105,47.25 105,105c0,57.75 -47.25,105 -105,105z" fill="#7cb342"></path><path d="M141.75,63l-42,-31.5l42,-31.5z" fill="#7cb342"></path></g><path d="M94.5,78.75l9.45,-4.725l26.775,49.875l-9.45,4.725z" fill="#000000"></path><path d="M121.8,121.8l8.925,8.925l-27.3,26.775l-8.925,-8.925z" fill="#000000"></path><path d="M115.5,126c0,5.775 4.725,10.5 10.5,10.5c5.775,0 10.5,-4.725 10.5,-10.5c0,-5.775 -4.725,-10.5 -10.5,-10.5c-5.775,0 -10.5,4.725 -10.5,10.5" fill="#000000"></path><path d="M120.75,126c0,3.15 2.1,5.25 5.25,5.25c3.15,0 5.25,-2.1 5.25,-5.25c0,-3.15 -2.1,-5.25 -5.25,-5.25c-3.15,0 -5.25,2.1 -5.25,5.25" fill="#8bc34a"></path></g><g><g id="IOS_copy"><path d="M250.425,152.775l-14.7,-14.7c-2.1,-2.1 -5.775,-2.1 -8.4,0l-6.825,6.825l23.1,23.1l6.825,-6.825c2.1,-2.1 2.1,-5.775 0,-8.4" fill="#e57373"></path><rect x="-7.04284" y="-55.40884" transform="rotate(135) scale(5.24995,5.24995)" width="17.4" height="6.2" fill="#ff9800"></rect><rect x="6.99904" y="49.19704" transform="rotate(-45.01621) scale(5.24995,5.24995)" width="3.1" height="6.2" fill="#b0bec5"></rect><path d="M144.375,221.55l-7.875,30.45l30.45,-7.875z" fill="#ffc107"></path><path d="M140.175,236.25l-3.675,15.75l15.75,-3.675z" fill="#37474f"></path></g></g></g></svg>