<svg xmlns="http://www.w3.org/2000/svg" x="0px" y="0px"
     width="80" height="80"
     viewBox="0 0 252 252"
     style="fill:#1abc9c;"><g fill="none" fill-rule="nonzero" stroke="none" stroke-width="1" stroke-linecap="butt" stroke-linejoin="miter" stroke-miterlimit="10" stroke-dasharray="" stroke-dashoffset="0" font-family="none" font-weight="none" font-size="none" text-anchor="none" style="mix-blend-mode: normal"><path d="M0,252v-252h252v252z" fill="none"></path><g id="Layer_1"><g><g fill="#2196f3"><path d="M27.99405,228.32775c5.25735,-8.92395 11.68965,-20.3742 17.5329,-31.2228l0.6237,-1.16235l-1.03635,-0.82215c-24.0156,-18.9693 -37.2393,-44.63865 -37.2393,-72.27045c0,-54.71235 52.9893,-99.225 118.125,-99.225c65.1357,0 118.125,44.51265 118.125,99.225c0,54.71235 -52.9893,99.225 -118.125,99.225c-14.1372,0 -27.9909,-2.08845 -41.16105,-6.2055l-0.51345,-0.16065l-0.504,0.189c-19.8513,7.3584 -40.44285,11.92275 -55.82745,12.4299z"></path></g><g fill="#4e7ab5"><path d="M126,25.2c64.2663,0 116.55,43.80705 116.55,97.65c0,53.84295 -52.2837,97.65 -116.55,97.65c-13.98285,0 -27.67275,-2.06325 -40.69485,-6.13305l-1.0269,-0.3213l-1.008,0.37485c-18.48735,6.85125 -37.59525,11.26125 -52.45065,12.19365c4.9581,-8.50185 10.76355,-18.87165 16.09335,-28.76265l1.2537,-2.32785l-2.0727,-1.638c-23.6313,-18.6669 -36.64395,-43.89525 -36.64395,-71.03565c0,-53.84295 52.2837,-97.65 116.55,-97.65M126,22.05c-66.10905,0 -119.7,45.13005 -119.7,100.8c0,28.9989 14.56245,55.1187 37.84095,73.5084c-6.70005,12.43935 -13.6773,24.76845 -18.94095,33.5916c16.317,0 38.77335,-5.01795 59.16645,-12.5748c12.96855,4.0509 26.99235,6.2748 41.63355,6.2748c66.10905,0 119.7,-45.13005 119.7,-100.8c0,-55.66995 -53.59095,-100.8 -119.7,-100.8z"></path></g></g><rect x="34" y="21" transform="scale(3.15,3.15)" width="10" height="32" fill="#ffffff"></rect><rect x="46" y="31" transform="scale(3.15,3.15)" width="10" height="22" fill="#c2e8ff"></rect><rect x="22" y="39" transform="scale(3.15,3.15)" width="10" height="14" fill="#c2e8ff"></rect></g></g></svg>