<svg width="514px" height="400px" viewBox="42 331 514 400" version="1.1" xmlns="http://www.w3.org/2000/svg" xmlns:xlink="http://www.w3.org/1999/xlink">
    <title>Azure Illustration - Building with Clouds</title>
    <defs>
        <polygon id="path-1" points="0.0189325185 351.06859 512.137247 351.967352 512.137247 1.84123576 0.62792853 0.554791812"></polygon>
    </defs>
    <g id="Illustration" stroke="none" stroke-width="1" fill="none" fill-rule="evenodd" transform="translate(42.000000, 331.754234)">
        <g id="Main-Illo" transform="translate(0.197160, 46.281260)">
            <path d="M358.125256,350.186505 L43.2290583,350.186505 C37.6169845,350.186505 33.2959057,345.60688 33.2959057,340.291416 C33.2959057,334.973531 37.6169845,330.393906 43.2290583,330.393906 L358.125256,330.393906 C363.461207,330.393906 368.058408,334.973531 368.058408,340.291416 C368.058408,345.60688 363.461207,350.186505 358.125256,350.186505 L358.125256,350.186505 Z" id="Fill-2" fill="#0B64AF"></path>
            <mask id="mask-2" fill="white">
                <use xlink:href="#path-1"></use>
            </mask>
            <g id="Clip-5"></g>
            <polygon id="Fill-4" fill="#4899D3" mask="url(#mask-2)" points="55.177907 228.753811 156.403538 228.753811 156.403538 225.188383 55.177907 225.188383"></polygon>
            <polygon id="Fill-6" fill="#3175BB" mask="url(#mask-2)" points="56.9509057 340.291416 131.491938 340.291416 131.491938 228.753811 56.9509057 228.753811"></polygon>
            <polygon id="Fill-7" fill="#0B64AF" mask="url(#mask-2)" points="98.9179305 312.138337 56.1939903 313.912579 74.7717227 340.291416 118.251367 340.291416"></polygon>
            <polygon id="Fill-8" fill="#293282" mask="url(#mask-2)" points="131.491938 340.291416 155.386244 340.291416 155.386244 228.753811 131.491938 228.753811"></polygon>
            <polygon id="Fill-9" fill="#20245D" mask="url(#mask-2)" points="131.491938 340.29069 155.388666 340.29069 155.388666 240.654786 131.491938 267.023941"></polygon>
            <polygon id="Fill-10" fill="#4899D3" mask="url(#mask-2)" points="56.9509057 240.398937 131.491938 240.398937 131.491938 237.867072 56.9509057 237.867072"></polygon>
            <polygon id="Fill-11" fill="#4899D3" mask="url(#mask-2)" points="56.9509057 271.08146 131.491938 271.08146 131.491938 268.549596 56.9509057 268.549596"></polygon>
            <polygon id="Fill-12" fill="#4899D3" mask="url(#mask-2)" points="56.9509057 303.27923 131.491938 303.27923 131.491938 300.747365 56.9509057 300.747365"></polygon>
            <path d="M70.9578377,242.927897 L69.6668428,242.927897 C66.8692833,242.927897 64.3284696,245.483967 64.3284696,248.269987 L64.3284696,264.245425 L76.2937888,264.245425 L76.2937888,248.269987 C76.2937888,245.483967 74.0048765,242.927897 70.9578377,242.927897" id="Fill-13" fill="#293282" mask="url(#mask-2)"></path>
            <path d="M94.8460888,242.927897 L93.5817373,242.927897 C90.7841778,242.927897 88.2433641,245.483967 88.2433641,248.269987 L88.2433641,264.245425 L100.208683,264.245425 L100.208683,248.269987 C100.208683,245.483967 97.9028161,242.927897 94.8460888,242.927897" id="Fill-14" fill="#293282" mask="url(#mask-2)"></path>
            <path d="M118.760257,242.927897 L117.493483,242.927897 C114.695924,242.927897 112.157532,245.483967 112.157532,248.269987 L112.157532,264.245425 L124.105896,264.245425 L124.105896,248.269987 C124.105896,245.483967 121.816984,242.927897 118.760257,242.927897" id="Fill-15" fill="#293282" mask="url(#mask-2)"></path>
            <path d="M70.9578377,275.127845 L69.6668428,275.127845 C66.8692833,275.127845 64.3284696,277.666972 64.3284696,280.469935 L64.3284696,296.421168 L76.2937888,296.421168 L76.2937888,280.469935 C76.2937888,277.666972 74.0048765,275.127845 70.9578377,275.127845" id="Fill-16" fill="#293282" mask="url(#mask-2)"></path>
            <path d="M94.8460888,275.127845 L93.5817373,275.127845 C90.7841778,275.127845 88.2433641,277.666972 88.2433641,280.469935 L88.2433641,296.421168 L100.208683,296.421168 L100.208683,280.469935 C100.208683,277.666972 97.9028161,275.127845 94.8460888,275.127845" id="Fill-17" fill="#293282" mask="url(#mask-2)"></path>
            <path d="M118.760257,275.127845 L117.493483,275.127845 C114.695924,275.127845 112.157532,277.666972 112.157532,280.469935 L112.157532,296.421168 L124.105896,296.421168 L124.105896,280.469935 C124.105896,277.666972 121.816984,275.127845 118.760257,275.127845" id="Fill-18" fill="#293282" mask="url(#mask-2)"></path>
            <polygon id="Fill-19" fill="#293282" mask="url(#mask-2)" points="133.015457 228.753811 156.401116 228.753811 156.401116 225.188383 133.015457 225.188383"></polygon>
            <polygon id="Fill-20" fill="#293282" mask="url(#mask-2)" points="103.513921 340.291416 115.20554 340.291416 115.20554 317.988736 103.513921 317.988736"></polygon>
            <polygon id="Fill-21" fill="#293282" mask="url(#mask-2)" points="76.8026781 334.211067 93.8326699 334.211067 93.8326699 325.327755 76.8026781 325.327755"></polygon>
            <polygon id="Fill-22" fill="#293282" mask="url(#mask-2)" points="63.8224868 334.211067 77.8248167 334.211067 77.8248167 325.327755 63.8224868 325.327755"></polygon>
            <polygon id="Fill-23" fill="#4899D3" mask="url(#mask-2)" points="98.9179305 312.138337 56.7026374 312.138337 51.3642643 321.786533 51.3642643 326.339533 98.9179305 326.339533"></polygon>
            <polygon id="Fill-24" fill="#293282" mask="url(#mask-2)" points="87.7361702 326.339533 92.8202198 326.339533 92.8202198 321.781692 87.7361702 321.781692"></polygon>
            <polygon id="Fill-25" fill="#293282" mask="url(#mask-2)" points="75.5286381 326.339533 80.6126877 326.339533 80.6126877 321.781692 75.5286381 321.781692"></polygon>
            <polygon id="Fill-26" fill="#293282" mask="url(#mask-2)" points="63.5633189 326.339533 68.3930449 326.339533 68.3930449 321.781692 63.5633189 321.781692"></polygon>
            <polygon id="Fill-27" fill="#293282" mask="url(#mask-2)" points="51.3654753 326.339533 56.4495249 326.339533 56.4495249 321.781692 51.3654753 321.781692"></polygon>
            <polygon id="Fill-28" fill="#293282" mask="url(#mask-2)" points="51.3649909 321.785565 56.4441962 321.785565 61.7801473 312.137368 56.7033641 312.137368"></polygon>
            <polygon id="Fill-29" fill="#293282" mask="url(#mask-2)" points="63.5630767 321.785565 68.3928027 321.785565 74.0048765 312.137368 68.9014499 312.137368"></polygon>
            <polygon id="Fill-30" fill="#293282" mask="url(#mask-2)" points="75.5288803 321.785565 80.615352 321.785565 85.9537252 312.137368 81.1239992 312.137368"></polygon>
            <polygon id="Fill-31" fill="#293282" mask="url(#mask-2)" points="87.7354436 321.785565 92.5651696 321.785565 98.1530221 312.137368 93.0738167 312.137368"></polygon>
            <polygon id="Fill-32" fill="#293282" mask="url(#mask-2)" points="211.092798 340.291416 249.263135 340.291416 249.263135 142.813215 211.092798 142.813215"></polygon>
            <polygon id="Fill-33" fill="#4899D3" mask="url(#mask-2)" points="211.093767 331.929968 211.093767 142.812246 145.221536 142.812246 145.221536 331.929968 145.221536 333.70421 145.221536 340.290448 211.093767 340.290448"></polygon>
            <polygon id="Fill-34" fill="#293282" mask="url(#mask-2)" points="180.57639 212.778372 190.003317 212.778372 190.003317 203.135017 180.57639 203.135017"></polygon>
            <polygon id="Fill-35" fill="#293282" mask="url(#mask-2)" points="166.598281 212.778372 176.003409 212.778372 176.003409 203.135017 166.598281 203.135017"></polygon>
            <polygon id="Fill-36" fill="#293282" mask="url(#mask-2)" points="194.573875 212.778372 203.979004 212.778372 203.979004 203.135017 194.573875 203.135017"></polygon>
            <polygon id="Fill-37" fill="#293282" mask="url(#mask-2)" points="194.573875 212.778372 203.979004 212.778372 203.979004 203.135017 194.573875 203.135017"></polygon>
            <polygon id="Fill-38" fill="#3175BB" mask="url(#mask-2)" points="166.089149 120.739758 214.149041 120.739758 214.149041 142.812488 152.590622 142.812488"></polygon>
            <polygon id="Fill-39" fill="#293282" mask="url(#mask-2)" points="214.149767 120.739758 226.364566 120.739758 239.836449 142.812488 214.149767 142.812488"></polygon>
            <path d="M213.134168,142.812488 L144.457112,142.812488 C142.424945,142.812488 140.642258,144.330155 140.642258,146.610286 L140.642258,151.165706 C140.642258,153.189262 142.424945,154.963504 144.457112,154.963504 L213.134168,154.963504 L213.134168,142.812488 Z" id="Fill-40" fill="#4899D3" mask="url(#mask-2)"></path>
            <path d="M249.521818,142.812488 L213.383648,142.812488 L213.383648,154.963504 L249.521818,154.963504 C251.81073,154.963504 253.33425,153.189262 253.33425,151.165706 L253.33425,146.610286 C253.33425,144.330155 251.81073,142.812488 249.521818,142.812488" id="Fill-41" fill="#293282" mask="url(#mask-2)"></path>
            <path d="M157.170869,154.963504 C154.622789,154.963504 152.590622,157.243634 152.590622,159.799704 L152.590622,196.552894 L162.01755,196.552894 L162.01755,159.799704 C162.01755,157.243634 159.985383,154.963504 157.170869,154.963504" id="Fill-42" fill="#293282" mask="url(#mask-2)"></path>
            <path d="M171.168112,154.963504 C168.629721,154.963504 166.597554,157.243634 166.597554,159.799704 L166.597554,196.552894 L175.997838,196.552894 L175.997838,159.799704 C175.997838,157.243634 173.965672,154.963504 171.168112,154.963504" id="Fill-43" fill="#293282" mask="url(#mask-2)"></path>
            <path d="M185.148159,154.963504 C182.609767,154.963504 180.577601,157.243634 180.577601,159.799704 L180.577601,196.552894 L190.004528,196.552894 L190.004528,159.799704 C190.004528,157.243634 187.945718,154.963504 185.148159,154.963504" id="Fill-44" fill="#293282" mask="url(#mask-2)"></path>
            <path d="M199.154122,154.963504 C196.606042,154.963504 194.573875,157.243634 194.573875,159.799704 L194.573875,196.552894 L203.983848,196.552894 L203.983848,159.799704 C203.983848,157.243634 201.944415,154.963504 199.154122,154.963504" id="Fill-45" fill="#293282" mask="url(#mask-2)"></path>
            <polygon id="Fill-46" fill="#F68C1E" mask="url(#mask-2)" points="166.598281 228.753811 176.003409 228.753811 176.003409 219.36461 166.598281 219.36461"></polygon>
            <polygon id="Fill-47" fill="#293282" mask="url(#mask-2)" points="180.57639 228.753811 190.003317 228.753811 190.003317 219.36461 180.57639 219.36461"></polygon>
            <polygon id="Fill-48" fill="#293282" mask="url(#mask-2)" points="194.573875 228.753811 203.979004 228.753811 203.979004 219.36461 194.573875 219.36461"></polygon>
            <polygon id="Fill-49" fill="#F68C1E" mask="url(#mask-2)" points="194.573875 228.753811 203.979004 228.753811 203.979004 219.36461 194.573875 219.36461"></polygon>
            <polygon id="Fill-50" fill="#293282" mask="url(#mask-2)" points="166.598281 244.959198 176.003409 244.959198 176.003409 235.337628 166.598281 235.337628"></polygon>
            <polygon id="Fill-51" fill="#293282" mask="url(#mask-2)" points="180.57639 244.959198 190.003317 244.959198 190.003317 235.337628 180.57639 235.337628"></polygon>
            <polygon id="Fill-52" fill="#293282" mask="url(#mask-2)" points="194.573875 244.959198 203.979004 244.959198 203.979004 235.337628 194.573875 235.337628"></polygon>
            <polygon id="Fill-53" fill="#F68C1E" mask="url(#mask-2)" points="194.573875 244.959198 203.979004 244.959198 203.979004 235.337628 194.573875 235.337628"></polygon>
            <polygon id="Fill-54" fill="#293282" mask="url(#mask-2)" points="166.598281 261.18395 176.003409 261.18395 176.003409 251.56238 166.598281 251.56238"></polygon>
            <polygon id="Fill-55" fill="#F68C1E" mask="url(#mask-2)" points="180.57639 261.18395 190.003317 261.18395 190.003317 251.56238 180.57639 251.56238"></polygon>
            <polygon id="Fill-56" fill="#293282" mask="url(#mask-2)" points="194.573875 261.18395 203.979004 261.18395 203.979004 251.56238 194.573875 251.56238"></polygon>
            <polygon id="Fill-57" fill="#293282" mask="url(#mask-2)" points="194.573875 261.18395 203.979004 261.18395 203.979004 251.56238 194.573875 251.56238"></polygon>
            <polygon id="Fill-58" fill="#293282" mask="url(#mask-2)" points="166.598281 277.159389 176.003409 277.159389 176.003409 267.791972 166.598281 267.791972"></polygon>
            <polygon id="Fill-59" fill="#293282" mask="url(#mask-2)" points="180.57639 277.159389 190.003317 277.159389 190.003317 267.791972 180.57639 267.791972"></polygon>
            <polygon id="Fill-60" fill="#293282" mask="url(#mask-2)" points="194.573875 277.159389 203.979004 277.159389 203.979004 267.791972 194.573875 267.791972"></polygon>
            <polygon id="Fill-61" fill="#F68C1E" mask="url(#mask-2)" points="194.573875 277.159389 203.979004 277.159389 203.979004 267.791972 194.573875 267.791972"></polygon>
            <polygon id="Fill-62" fill="#F68C1E" mask="url(#mask-2)" points="166.598281 293.38414 176.003409 293.38414 176.003409 283.76257 166.598281 283.76257"></polygon>
            <polygon id="Fill-63" fill="#293282" mask="url(#mask-2)" points="180.57639 293.38414 190.003317 293.38414 190.003317 283.76257 180.57639 283.76257"></polygon>
            <polygon id="Fill-64" fill="#293282" mask="url(#mask-2)" points="194.573875 293.38414 203.979004 293.38414 203.979004 283.76257 194.573875 283.76257"></polygon>
            <polygon id="Fill-65" fill="#293282" mask="url(#mask-2)" points="194.573875 293.38414 203.979004 293.38414 203.979004 283.76257 194.573875 283.76257"></polygon>
            <polygon id="Fill-66" fill="#F68C1E" mask="url(#mask-2)" points="152.591107 212.778372 162.018034 212.778372 162.018034 203.135017 152.591107 203.135017"></polygon>
            <polygon id="Fill-67" fill="#293282" mask="url(#mask-2)" points="152.591107 228.753811 162.018034 228.753811 162.018034 219.36461 152.591107 219.36461"></polygon>
            <polygon id="Fill-68" fill="#293282" mask="url(#mask-2)" points="152.591107 244.959198 162.018034 244.959198 162.018034 235.337628 152.591107 235.337628"></polygon>
            <polygon id="Fill-69" fill="#293282" mask="url(#mask-2)" points="152.591107 261.18395 162.018034 261.18395 162.018034 251.56238 152.591107 251.56238"></polygon>
            <polygon id="Fill-70" fill="#293282" mask="url(#mask-2)" points="152.591107 277.159389 162.018034 277.159389 162.018034 267.791972 152.591107 267.791972"></polygon>
            <polygon id="Fill-71" fill="#F68C1E" mask="url(#mask-2)" points="152.591107 293.38414 162.018034 293.38414 162.018034 283.76257 152.591107 283.76257"></polygon>
            <polygon id="Fill-72" fill="#293282" mask="url(#mask-2)" points="152.591107 333.705178 162.018034 333.705178 162.018034 299.987322 152.591107 299.987322"></polygon>
            <polygon id="Fill-73" fill="#293282" mask="url(#mask-2)" points="194.573875 333.705178 203.979004 333.705178 203.979004 299.987322 194.573875 299.987322"></polygon>
            <polygon id="Fill-74" fill="#293282" mask="url(#mask-2)" points="166.598281 333.705178 190.003317 333.705178 190.003317 299.987322 166.598281 299.987322"></polygon>
            <polygon id="Fill-75" fill="#0B64AF" mask="url(#mask-2)" points="166.089149 120.739758 214.149041 120.739758 214.149041 142.812488 152.590622 142.812488"></polygon>
            <polygon id="Fill-76" fill="#293282" mask="url(#mask-2)" points="312.60424 340.291416 350.752778 340.291416 350.752778 271.08146 312.60424 271.08146"></polygon>
            <polygon id="Fill-77" fill="#3175BB" mask="url(#mask-2)" points="246.707788 340.291416 312.60424 340.291416 312.60424 271.08146 246.707788 271.08146"></polygon>
            <polygon id="Fill-78" fill="#293282" mask="url(#mask-2)" points="282.078144 296.419474 291.483272 296.419474 291.483272 287.052058 282.078144 287.052058"></polygon>
            <polygon id="Fill-79" fill="#293282" mask="url(#mask-2)" points="268.073392 296.419474 277.500319 296.419474 277.500319 287.052058 268.073392 287.052058"></polygon>
            <polygon id="Fill-80" fill="#293282" mask="url(#mask-2)" points="296.058675 296.419474 305.463803 296.419474 305.463803 287.052058 296.058675 287.052058"></polygon>
            <polygon id="Fill-81" fill="#293282" mask="url(#mask-2)" points="296.058675 296.419474 305.463803 296.419474 305.463803 287.052058 296.058675 287.052058"></polygon>
            <path d="M242.127057,271.08025 L242.127057,275.63325 C242.127057,277.666488 243.909744,279.433468 245.939489,279.433468 L313.361882,279.433468 C314.635922,279.433468 315.909963,278.172377 315.909963,276.904024 L315.909963,271.08025 L242.127057,271.08025 Z" id="Fill-82" fill="#3175BB" mask="url(#mask-2)"></path>
            <path d="M321.246882,271.08025 L321.246882,279.433468 L351.005164,279.433468 C353.296498,279.433468 355.069497,277.666488 355.069497,275.63325 L355.069497,271.08025 L321.246882,271.08025 Z" id="Fill-83" fill="#293282" mask="url(#mask-2)"></path>
            <polygon id="Fill-84" fill="#293282" mask="url(#mask-2)" points="268.073392 312.644226 277.500319 312.644226 277.500319 303.022655 268.073392 303.022655"></polygon>
            <polygon id="Fill-85" fill="#293282" mask="url(#mask-2)" points="282.078144 312.644226 291.483272 312.644226 291.483272 303.022655 282.078144 303.022655"></polygon>
            <polygon id="Fill-86" fill="#293282" mask="url(#mask-2)" points="254.092861 296.419474 263.497989 296.419474 263.497989 287.052058 254.092861 287.052058"></polygon>
            <polygon id="Fill-87" fill="#293282" mask="url(#mask-2)" points="271.636344 340.291416 287.925164 340.291416 287.925164 317.482847 271.636344 317.482847"></polygon>
            <polygon id="Fill-88" fill="#293282" mask="url(#mask-2)" points="296.058675 328.876239 305.463803 328.876239 305.463803 303.027496 296.058675 303.027496"></polygon>
            <polygon id="Fill-89" fill="#293282" mask="url(#mask-2)" points="254.092861 328.876239 263.497989 328.876239 263.497989 303.027496 254.092861 303.027496"></polygon>
            <polygon id="Fill-90" fill="#3175BB" mask="url(#mask-2)" points="242.127057 271.08025 259.687495 254.349609 318.191608 254.349609 318.191608 271.08025"></polygon>
            <polygon id="Fill-91" fill="#0B64AF" mask="url(#mask-2)" points="242.127057 271.08025 259.687495 254.349609 318.191608 254.349609 318.191608 271.08025"></polygon>
            <polygon id="Fill-92" fill="#293282" mask="url(#mask-2)" points="318.190882 271.08025 318.190882 254.349609 337.534007 254.349609 355.070224 271.08025"></polygon>
            <polygon id="Fill-93" fill="#16234E" mask="url(#mask-2)" points="337.534007 254.350094 318.190882 254.350094 318.190882 271.080734 355.070224 271.080734"></polygon>
            <polygon id="Fill-94" fill="#16234E" mask="url(#mask-2)" points="221.028372 248.270471 241.110247 248.270471 241.110247 206.429346 221.028372 206.429346"></polygon>
            <path d="M314.377481,229.764862 L273.160105,229.764862 L273.160105,226.702903 L314.377481,226.702903 C325.567719,226.702903 334.461778,217.587221 334.461778,206.43104 L334.461778,168.152922 C334.461778,155.469392 344.903578,145.085358 357.866814,145.085358 L400.108751,145.085358 C411.032554,145.085358 420.183359,135.952732 420.183359,124.813495 L420.183359,96.411102 L423.240087,96.411102 L423.240087,124.813495 C423.240087,137.726974 412.815242,148.127952 400.108751,148.127952 L357.866814,148.127952 C346.683843,148.127952 337.533038,156.987059 337.533038,168.152922 L337.533038,206.43104 C337.533038,219.363884 327.091238,229.764862 314.377481,229.764862" id="Fill-95" fill="#FEFEFE" mask="url(#mask-2)"></path>
            <path d="M393.368176,29.3059964 C399.105738,19.2649133 409.641326,12.4813157 421.788418,12.4813157 C439.97713,12.4813157 454.359043,27.0427387 454.684385,45.1549752 L455.006685,45.1549752 C469.683535,45.1549752 481.484001,57.1104099 481.484001,71.6718329 C481.484001,86.526584 469.683535,98.185603 455.006685,98.185603 L352.499825,98.185603 C341.012537,98.185603 331.404324,88.8114553 331.404324,77.1616994 C331.404324,65.5026804 340.687196,56.1377958 351.861304,55.8105034 C351.535963,54.2018305 351.535963,52.2658652 351.535963,50.6479293 C351.535963,35.759214 363.02325,23.8161299 377.730505,23.8161299 C383.471108,23.8161299 388.895492,25.7520952 393.368176,29.3059964" id="Fill-96" fill="#FEFEFE" mask="url(#mask-2)"></path>
            <path d="M465.846635,47.4203943 C470.632498,52.2649389 473.195701,58.7212442 473.195701,65.8290465 C473.195701,80.3904695 461.383073,92.3675179 447.001159,92.3675179 L344.199362,92.3675179 C341.648321,92.3675179 339.09728,92.0402255 336.515833,91.0768743 C340.374321,95.5941266 346.111883,98.1877643 352.497088,98.1877643 L455.00699,98.1877643 C469.683839,98.1877643 481.484305,86.5256577 481.484305,71.6709066 C481.484305,60.9845018 475.108222,51.6196172 465.846635,47.4203943" id="Fill-97" fill="#D6D7D8" mask="url(#mask-2)"></path>
            <path d="M236.540174,221.644257 L230.945055,221.644257 L230.945055,234.574679 L236.540174,234.574679 C237.804525,234.574679 238.821819,233.812215 238.821819,232.551124 L238.821819,223.917126 C238.821819,222.656034 237.804525,221.644257 236.540174,221.644257" id="Fill-98" fill="#FEFEFE" mask="url(#mask-2)"></path>
            <path d="M275.958149,232.045961 C278.007271,232.045961 279.787536,230.271719 279.787536,228.248164 C279.787536,225.948669 278.007271,224.174427 275.958149,224.174427 L273.16059,224.174427 L273.16059,232.045961 L275.958149,232.045961 Z" id="Fill-99" fill="#F68C1E" mask="url(#mask-2)"></path>
            <path d="M273.418547,224.173943 L265.025868,219.361947 C264.008574,218.856059 262.228309,218.35017 260.961535,218.35017 L236.282459,218.35017 C235.265165,218.35017 234.250292,219.361947 234.250292,220.632721 L234.250292,235.586699 C234.250292,236.857473 235.265165,237.869251 236.282459,237.869251 L260.961535,237.869251 C262.228309,237.869251 264.008574,237.363362 265.025868,236.857473 L273.418547,232.045477 L273.418547,224.173943 Z" id="Fill-100" fill="#F68C1E" mask="url(#mask-2)"></path>
            <path d="M235.515855,218.599967 L235.515855,233.563628 C235.515855,234.831981 236.540416,235.587183 237.555288,235.587183 L262.227098,235.587183 C263.501138,235.587183 265.283825,235.33787 266.298697,234.831981 L273.417336,230.528295 L273.417336,232.045961 L265.024657,236.855536 C264.009785,237.361425 262.227098,237.867314 260.962746,237.867314 L236.281248,237.867314 C235.266376,237.867314 234.251503,236.855536 234.251503,235.587183 L234.251503,220.633205 C234.251503,219.86832 234.757728,219.105856 235.515855,218.599967" id="Fill-101" fill="#D87B26" mask="url(#mask-2)"></path>
            <polygon id="Fill-102" fill="#A4A6A9" mask="url(#mask-2)" points="230.94457 234.575164 234.248355 234.575164 234.248355 231.283255 230.94457 231.283255"></polygon>
            <path d="M279.788747,227.46682 L279.788747,228.246227 C279.788747,230.272203 278.00606,232.046445 275.95936,232.046445 L273.159379,232.046445 L273.159379,230.778092 L275.95936,230.778092 C278.00606,230.778092 279.539268,229.258005 279.788747,227.46682" id="Fill-103" fill="#D87B26" mask="url(#mask-2)"></path>
            <polygon id="Fill-104" fill="#398AC9" mask="url(#mask-2)" points="98.9179305 312.138337 98.1525376 312.138337 92.8141645 321.786533 92.8141645 326.339533 98.9179305 326.339533"></polygon>
            <polygon id="Fill-105" fill="#398AC9" mask="url(#mask-2)" points="92.8144067 321.785565 92.5649273 321.785565 87.7352013 321.785565 80.6165631 321.785565 75.5276692 321.785565 68.3920761 321.785565 63.5623501 321.785565 56.4437118 321.785565 51.3645065 321.785565 56.4437118 321.785565 56.4437118 326.338565 63.5623501 326.338565 63.5623501 321.785565 68.3920761 321.785565 68.3920761 326.338565 75.5276692 326.338565 75.5276692 321.785565 80.6165631 321.785565 80.6165631 326.338565 87.7352013 326.338565 87.7352013 321.785565 92.8144067 321.785565 92.8144067 326.338565"></polygon>
            <polygon id="Fill-106" fill="#282E75" mask="url(#mask-2)" points="87.7361702 326.339533 92.8202198 326.339533 92.8202198 321.781692 87.7361702 321.781692"></polygon>
            <polygon id="Fill-107" fill="#282E75" mask="url(#mask-2)" points="75.5286381 326.339533 80.6126877 326.339533 80.6126877 321.781692 75.5286381 321.781692"></polygon>
            <polygon id="Fill-108" fill="#282E75" mask="url(#mask-2)" points="63.5633189 326.339533 68.3930449 326.339533 68.3930449 321.781692 63.5633189 321.781692"></polygon>
            <polygon id="Fill-109" fill="#282E75" mask="url(#mask-2)" points="51.3654753 326.339533 56.4495249 326.339533 56.4495249 321.781692 51.3654753 321.781692"></polygon>
        </g>
        <g id="Clouds" transform="translate(69.666881, 0.980066)" fill="#FEFEFE">
            <path d="M383.720243,7.92059961 L385.483446,7.92059961 C387.693838,3.51079832 392.583105,0 397.872714,0 C405.376973,0 411.565218,6.16093977 411.565218,13.6256469 C411.565218,14.5161285 411.565218,15.8284172 411.11377,16.7061168 C412.44682,15.3980887 414.210022,14.5161285 415.973225,14.5161285 C419.499631,14.5161285 422.595883,17.1534879 422.595883,20.6685469 C422.595883,24.1836059 419.499631,27.2640758 415.973225,27.2640758 L397.872714,27.2640758 L383.720243,27.2640758 C378.430635,27.2640758 374.005592,22.8713172 374.005592,17.5838163 C374.005592,12.3133582 378.430635,7.92059961 383.720243,7.92059961" id="Fill-1"></path>
            <path d="M9.71465103,98.3392043 L11.4778538,98.3392043 C13.6882457,93.929403 18.5775133,90.4186047 23.8671216,90.4186047 C31.3713808,90.4186047 37.5596262,96.5795444 37.5596262,104.044252 C37.5596262,104.934733 37.5596262,106.247022 37.1081782,107.124721 C38.4412276,105.816693 40.2044304,104.934733 41.9676332,104.934733 C45.4940387,104.934733 48.5902909,107.572093 48.5902909,111.087152 C48.5902909,114.602211 45.4940387,117.68268 41.9676332,117.68268 L23.8671216,117.68268 L9.71465103,117.68268 C4.42504271,117.68268 0,113.289922 0,108.002421 C0,102.731963 4.42504271,98.3392043 9.71465103,98.3392043" id="Fill-1-Copy"></path>
            <path d="M203.7554,21.0468993 C204.762945,21.0468993 205.77049,21.0468993 206.281564,21.5387037 C209.343139,15.0235126 215.899486,10.4950166 223.468245,10.4950166 C233.563169,10.4950166 242.134606,19.0407268 242.134606,29.0813277 C242.134606,30.5956957 241.623532,31.5987819 241.623532,33.11315 C243.142151,31.0875001 245.653714,30.0844139 248.184746,30.0844139 C252.760073,30.0844139 256.790255,34.1162362 256.790255,38.6301241 C256.790255,43.6991181 252.760073,47.7163323 248.184746,47.7163323 L223.468245,47.7163323 L203.7554,47.7163323 C196.702582,47.7163323 190.63784,41.6929457 190.63784,34.1162362 C190.63784,27.0702859 196.702582,21.0468993 203.7554,21.0468993" id="Fill-6"></path>
        </g>
    </g>
</svg>
