<svg width="580" height="414" xmlns="http://www.w3.org/2000/svg"><path d="M406.244 74.366l22.35 25.322-51.314 43.931-44.702-50.645 51.315-43.931 1.58-22.595L309.64 91.37l66.06 74.845 75.835-64.923-33.03-37.422zM270.736 345.46l-89.678 17.431 29.969-85.214-5.648-29.056v-.001l-47.044 133.766 140.772-27.364-52.026-59.061-8.73 12.734zM130.376 35.751l24.791 67.425-68.389 24.28 5.12 13.926 68.39-24.28 24.79 67.423 14.125-5.014-54.701-148.775zm112.425 52.055l-5.12-13.926-34.195 12.14 5.12 13.926zM30.274 252.998l54.185-71.906 73 55.01-27.092 35.953 12 9.042 35.999-47.772-97-73.095-72 95.545 97.001 73.095-3.093-20.863zm412.015 54.176l7.32 36.382-38.477 33.006-48.476-16.692-10-49.698 38.477-33.006 24.238 8.346 5.237-15.207-33.152-11.415-52.626 45.144 13.676 67.974 66.303 22.83 52.627-45.144-10.012-49.76zm86.168-123.105c9.154 23.847-3.052 50.713-27.262 60.006s-51.257-2.505-60.41-26.352c-4.578-11.923-3.815-24.602 1.118-35.46l-14.239-6.212c-6.578 14.479-7.595 31.383-1.492 47.281 12.205 31.796 48.268 47.527 80.548 35.136 32.28-12.391 48.554-48.212 36.349-80.008-12.205-31.797-48.268-47.527-80.548-35.136l5.525 14.393c24.21-9.293 51.257 2.505 60.41 26.352" fill="#232F46" fill-rule="evenodd"/></svg>