<svg viewBox="0 0 2649 567" xmlns="http://www.w3.org/2000/svg">
  <g transform="translate(0.000000, -41.000000) translate(0.000000, 0.348231)" stroke="#000000" fill="none" fill-rule="evenodd" stroke-opacity=".2" opacity=".5">
    <path d="M501.554994,342.890415 C680.547098,380.795664 845.527851,400.038225 996.497253,400.618098 C1222.95136,401.487909 1360.67277,300.752409 1537.36248,311.926125 C1714.05219,323.099842 1971.89728,421.369286 2154.63935,423.825784 C2337.38141,426.282281 2532.94582,289.057762 2658.71027,290.195206" transform="translate(1580.132630, 357.023275) rotate(12.098036) translate(-1580.132630, -357.023275)"/>
    <path d="M491.319382,343.188997 C666.786849,380.29343 828.518871,399.129458 976.515447,399.697081 C1198.51031,400.548515 1333.51977,301.94123 1506.73018,312.878882 C1679.9406,323.816534 1932.70831,420.009864 2111.85189,422.414463 C2290.99548,424.819062 2482.70891,290.493653 2605.99686,291.607067" opacity=".98" transform="translate(1548.658122, 357.023275) rotate(13.080324) translate(-1548.658122, -357.023275)"/>
    <path d="M481.083769,343.20248 C653.111531,379.639567 811.673104,398.136818 956.768489,398.694232 C1174.41157,399.530352 1306.77442,302.696579 1476.58938,313.437511 C1646.40433,324.178443 1894.21701,418.641677 2069.84883,421.003028 C2245.48064,423.364379 2433.4359,291.454894 2554.30702,292.548282" opacity=".96" transform="translate(1517.695395, 356.787940) rotate(14.040617) translate(-1517.695395, -356.787940)"/>
    <path d="M470.848157,343.215963 C639.521143,378.985705 794.990551,397.144178 937.256379,397.691382 C1150.65512,398.512189 1280.43672,303.451929 1446.94005,313.99614 C1613.44338,324.540352 1856.42338,417.273489 2028.63014,419.591592 C2200.8369,421.909695 2385.12677,292.416135 2503.64074,293.489498" opacity=".94" transform="translate(1487.244449, 356.552605) rotate(14.970394) translate(-1487.244449, -356.552605)"/>
    <path d="M460.612545,343.229446 C625.973222,378.331842 778.389605,396.151537 917.861693,396.688533 C1127.06983,397.494026 1254.30285,304.207278 1417.53647,314.554769 C1580.7701,324.90226 1818.97859,415.905302 1987.80364,418.180157 C2156.6287,420.455012 2337.29958,293.377376 2453.48624,294.430714" opacity=".92" transform="translate(1457.049393, 356.317270) rotate(15.861400) translate(-1457.049393, -356.317270)"/>
    <path d="M450.376933,343.242929 C612.510231,377.677979 761.951872,395.158897 898.701855,395.685684 C1103.82683,396.475863 1228.57662,304.962627 1388.62438,315.113398 C1548.67214,325.264169 1782.23146,414.537115 1947.76152,416.768722 C2113.29159,419.000328 2290.43628,294.338617 2404.3553,295.371929" opacity=".9" transform="translate(1427.366118, 356.081935) rotate(16.705728) translate(-1427.366118, -356.081935)"/>
    <path d="M440.141321,343.256412 C599.089706,377.024116 745.595746,394.166257 879.659441,394.682834 C1080.75498,395.4577 1203.05421,305.717977 1359.95803,315.672027 C1516.86185,325.626078 1745.83318,413.168928 1908.1116,415.357286 C2070.39002,417.545645 2244.05493,295.299858 2355.73614,296.313145" opacity=".88" transform="translate(1397.938733, 355.846600) rotate(17.495883) translate(-1397.938733, -355.846600)"/>
    <path d="M429.905708,343.269895 C585.754112,376.370253 729.402834,393.173616 860.851875,393.679985 C1058.02544,394.439538 1177.93945,306.473326 1331.78316,316.230656 C1485.62687,325.987986 1710.13256,411.800741 1869.24606,413.945851 C2028.35955,416.090961 2198.63746,296.261099 2308.14055,297.25436" opacity=".86" transform="translate(1369.023128, 355.611266) rotate(18.224852) translate(-1369.023128, -355.611266)"/>
    <path d="M419.670096,343.283379 C572.460983,375.71639 713.291529,392.180976 842.161733,392.677136 C1035.46704,393.421375 1153.02852,307.228676 1303.85404,316.789285 C1454.67957,326.349895 1674.78078,410.432553 1830.77271,412.534415 C1986.76463,414.636277 2153.70193,297.22234 2261.05673,298.195576" opacity=".84" transform="translate(1340.363414, 355.375931) rotate(18.886164) translate(-1340.363414, -355.375931)"/>
    <path d="M409.434484,343.296862 C559.21032,375.062528 697.261831,391.188336 823.589015,391.674286 C1013.07979,392.403212 1128.32141,307.984025 1276.17067,317.347914 C1424.01992,326.711804 1639.77784,409.064366 1792.69154,411.12298 C1945.60525,413.181594 2109.24835,298.183581 2214.4847,299.136792" opacity=".82" transform="translate(1311.959590, 355.140596) rotate(19.473949) translate(-1311.959590, -355.140596)"/>
    <path d="M399.198872,343.310345 C546.044588,374.408665 681.395346,390.195695 805.251145,390.671437 C991.034844,391.385049 1104.02195,308.739374 1248.97877,317.906543 C1393.9356,327.073712 1605.47257,407.696179 1755.39476,409.711545 C1905.31696,411.72691 2065.75865,299.144823 2168.93622,300.078007" opacity=".8" transform="translate(1284.067547, 354.905261) rotate(19.982990) translate(-1284.067547, -354.905261)"/>
    <path d="M388.96326,343.323828 C532.921322,373.754802 665.610469,389.203055 787.0307,389.668587 C969.161046,390.366886 1079.92631,309.494724 1222.03263,318.465172 C1364.13894,327.435621 1571.51613,406.327992 1718.49018,408.300109 C1865.46422,410.272227 2022.7509,300.106064 2123.89953,301.019223" opacity=".78" transform="translate(1256.431394, 354.669926) rotate(20.408770) translate(-1256.431394, -354.669926)"/>
    <path d="M378.727647,343.522882 C519.882986,373.41998 649.988804,388.597211 769.045102,389.054576 C947.629548,389.740623 1056.23832,310.287271 1195.57796,319.100344 C1334.91761,327.913416 1538.25736,405.42171 1682.36997,407.359229 C1826.48257,409.296748 1980.70703,301.063324 2079.8864,301.960463" opacity=".76" transform="translate(1229.307022, 354.669926) rotate(20.747508) translate(-1229.307022, -354.669926)"/>
    <path d="M368.492035,343.721936 C506.887116,373.085157 634.448747,387.991366 751.176928,388.440564 C926.2692,389.114361 1032.75415,311.079819 1169.36905,319.735515 C1305.98394,328.391211 1505.34743,404.515428 1646.64195,406.418348 C1787.93647,408.321269 1939.14511,302.020585 2036.38504,302.901704" opacity=".74" transform="translate(1202.438540, 354.669926) rotate(20.996198) translate(-1202.438540, -354.669926)"/>
    <path d="M358.256423,343.920991 C493.933712,372.750335 618.990297,387.385522 733.426178,387.826553 C905.080001,388.488098 1009.47381,311.872366 1143.40587,320.370686 C1277.33793,328.869005 1472.78634,403.609146 1611.30613,405.477468 C1749.82591,407.34579 1898.06513,302.977846 1993.39547,303.842944" opacity=".72" transform="translate(1175.825948, 354.669926) rotate(21.152632) translate(-1175.825948, -354.669926)"/>
    <path d="M348.020811,344.120045 C481.022773,372.415512 603.613453,386.779678 715.792853,387.212541 C884.061952,387.861836 986.397293,312.664913 1117.68844,321.005857 C1248.97958,329.3468 1440.57408,402.702864 1576.36249,404.536588 C1712.1509,406.370311 1857.46709,303.935107 1950.91768,304.784185" opacity=".7" transform="translate(1149.469246, 354.669926) rotate(21.215422) translate(-1149.469246, -354.669926)"/>
    <path d="M337.785198,344.3191 C468.196765,372.08069 588.399824,386.173833 698.394375,386.598529 C863.386202,387.235574 963.728422,313.457461 1092.46249,321.641028 C1221.19656,329.824595 1409.05949,401.796583 1542.20324,403.595707 C1675.34699,405.394832 1817.83294,304.892367 1909.46345,305.725425" opacity=".68" transform="translate(1123.624326, 354.669926) rotate(21.184012) translate(-1123.624326, -354.669926)"/>
    <path d="M327.549586,344.518154 C455.413222,371.745868 573.267801,385.567989 681.113321,385.984518 C842.881603,386.609311 941.263375,314.250008 1067.48229,322.276199 C1193.7012,330.30239 1377.89374,400.890301 1508.43618,402.654827 C1638.97861,404.419353 1778.68073,305.849628 1868.521,306.666666" opacity=".66" transform="translate(1098.035295, 354.669926) rotate(21.058678) translate(-1098.035295, -354.669926)"/>
    <path d="M317.313974,344.717208 C442.672145,371.411045 558.217384,384.962145 663.949692,385.370506 C822.548153,385.983049 919.002152,315.042556 1042.74783,322.91137 C1166.49351,330.780185 1347.07683,399.984019 1475.06131,401.713946 C1603.04579,403.443874 1740.01047,306.806889 1828.09034,307.607906" opacity=".64" transform="translate(1072.702155, 354.669926) rotate(20.840535) translate(-1072.702155, -354.669926)"/>
    <path d="M307.078362,344.916263 C429.973534,371.076223 543.248575,384.3563 646.903486,384.756495 C802.385853,385.356786 896.944754,315.835103 1018.25911,323.546541 C1139.57347,331.25798 1316.60875,399.077737 1442.07863,400.773066 C1567.54851,402.468395 1701.82214,307.76415 1788.17145,308.549146" opacity=".62" transform="translate(1047.624905, 354.669926) rotate(20.531518) translate(-1047.624905, -354.669926)"/>
    <path d="M296.84275,345.115317 C417.317388,370.7414 528.361373,383.750456 629.974705,384.142483 C782.394703,384.730524 875.091179,316.627651 994.01614,324.181712 C1112.9411,331.735774 1286.4895,398.171455 1409.48814,399.832186 C1532.48677,401.492916 1664.11577,308.72141 1748.76434,309.490387" opacity=".6" transform="translate(1022.803545, 354.669926) rotate(20.134370) translate(-1022.803545, -354.669926)"/>
    <path d="M286.607137,345.314371 C404.703707,370.406578 513.555777,383.144611 613.163347,383.528471 C762.574702,384.104261 853.441427,317.420198 970.01891,324.816884 C1086.59639,332.213569 1256.71909,397.265173 1377.28984,398.891305 C1497.86058,400.517437 1626.89133,309.678671 1709.86901,310.431627" opacity=".58" transform="translate(998.238076, 354.669926) rotate(19.652617) translate(-998.238076, -354.669926)"/>
    <path d="M276.371525,345.513426 C392.132492,370.071756 498.831788,382.538767 596.469414,382.91446 C742.925852,383.477999 831.9955,318.212745 946.267423,325.452055 C1060.53935,332.691364 1227.29752,396.358891 1345.48373,397.950425 C1463.66994,399.541958 1590.14884,310.635932 1671.48547,311.372868" opacity=".56" transform="translate(973.928497, 354.669926) rotate(19.090533) translate(-973.928497, -354.669926)"/>
    <path d="M266.135913,345.71248 C379.646208,369.736933 484.271013,381.932923 580.010328,382.300448 C723.619301,382.851736 810.957221,319.005293 923.007422,326.087226 C1035.05762,333.169159 1198.57362,395.45261 1314.462,397.009544 C1430.35039,398.566479 1554.37024,311.593193 1634.12548,312.314108" opacity=".54" transform="translate(950.130699, 354.669926) rotate(18.453109) translate(-950.130699, -354.669926)"/>
    <path d="M255.900301,345.911534 C367.20239,369.402111 469.791845,381.327078 563.668667,381.686437 C704.483899,382.225474 790.122765,319.79784 899.993165,326.722397 C1009.86356,333.646954 1170.19855,394.546328 1283.83247,396.068664 C1397.46638,397.591 1519.07357,312.550453 1597.27728,313.255348" opacity=".52" transform="translate(926.588791, 354.669926) rotate(17.746003) translate(-926.588791, -354.669926)"/>
    <path d="M245.664689,345.82549 C354.801037,368.915659 455.394284,380.63736 547.444429,380.990593 C685.519648,381.520442 769.492134,320.156916 877.224651,326.96344 C984.957168,333.769965 1142.17232,393.631282 1253.59512,395.127669 C1365.01793,396.624056 1484.25886,313.033064 1560.94086,313.725944" opacity=".5" transform="translate(903.302773, 354.434591) rotate(16.975489) translate(-903.302773, -354.434591)"/>
    <path d="M235.429076,345.739446 C342.442149,368.429208 441.078329,379.947642 531.337616,380.294749 C666.726546,380.815411 749.065326,320.515992 854.70188,327.204484 C960.338433,333.892976 1114.49493,392.716235 1223.74997,394.186674 C1333.00501,395.657112 1449.92608,313.515675 1525.11621,314.196539" opacity=".48" transform="translate(880.272645, 354.199256) rotate(16.148409) translate(-880.272645, -354.199256)"/>
    <path d="M225.193464,345.653402 C330.125727,367.942756 426.843981,379.257924 515.348227,379.598906 C648.104594,380.110379 728.842343,320.875067 832.424852,327.445527 C936.007361,334.015988 1087.16637,391.801189 1194.29701,393.245679 C1301.42765,394.690168 1416.07525,313.998285 1489.80335,314.667135" opacity=".46" transform="translate(857.498408, 353.963922) rotate(15.272102) translate(-857.498408, -353.963922)"/>
    <path d="M214.957852,345.567358 C317.851771,367.456304 412.691241,378.568206 499.476261,378.903062 C629.653792,379.405347 708.823183,321.234143 810.393567,327.686571 C911.963952,334.138999 1060.18664,390.886143 1165.23624,392.304683 C1270.28583,393.723224 1382.70636,314.480896 1455.00227,315.13773" opacity=".44" transform="translate(834.980061, 353.728587) rotate(14.354347) translate(-834.980061, -353.728587)"/>
    <path d="M204.72224,345.481314 C305.577814,366.969853 398.5385,377.878488 483.604296,378.207219 C611.20299,378.700315 688.804023,321.593219 788.362283,327.927614 C887.920542,334.26201 1033.20692,389.971096 1136.17546,391.363688 C1239.14401,392.75628 1349.33747,314.963507 1420.20119,315.608326" opacity=".42" transform="translate(812.461715, 353.493252) rotate(13.403291) translate(-812.461715, -353.493252)"/>
    <path d="M194.486628,345.39527 C293.346323,366.483401 384.467366,377.18877 467.849755,377.511375 C592.923338,377.995284 668.988687,321.952294 766.576741,328.168658 C864.164795,334.385021 1006.57603,389.05605 1107.50688,390.422693 C1208.43773,391.789336 1316.45053,315.446118 1385.91189,316.078921" opacity=".4" transform="translate(790.199258, 353.257917) rotate(12.427374) translate(-790.199258, -353.257917)"/>
    <path d="M184.251015,345.309226 C281.157298,365.996949 370.477839,376.499051 452.212637,376.815532 C574.814835,377.290252 649.377175,322.31137 745.036943,328.409701 C840.696711,334.508033 980.29398,388.141004 1079.23049,389.481698 C1178.167,390.822392 1284.04553,315.928728 1352.13437,316.549516" opacity=".38" transform="translate(768.192692, 353.022582) rotate(11.435259) translate(-768.192692, -353.022582)"/>
    <path d="M174.015403,345.223182 C269.010738,365.510498 356.569918,375.809333 436.692944,376.119688 C556.877483,376.58522 629.969487,322.670446 723.742888,328.650745 C817.516289,334.631044 954.360763,387.225958 1051.34629,388.540703 C1148.33182,389.855448 1252.12247,316.411339 1318.86863,317.020112" opacity=".36" transform="translate(746.442016, 352.787247) rotate(10.435753) translate(-746.442016, -352.787247)"/>
    <path d="M163.779791,345.137138 C256.906644,365.024046 342.743605,375.119615 421.290675,375.423845 C539.11128,375.880189 610.765623,323.029521 702.694576,328.891788 C794.623529,334.754055 928.776382,386.310911 1023.85428,387.599708 C1118.93218,388.888504 1220.68135,316.89395 1286.11467,317.490707" opacity=".34" transform="translate(724.947230, 352.551912) rotate(9.437726) translate(-724.947230, -352.551912)"/>
    <path d="M153.544179,345.051093 C244.845015,364.537594 328.998898,374.429897 406.00583,374.728001 C521.516227,375.175157 591.765582,323.388597 681.892007,329.132832 C772.018432,334.877066 903.540837,385.395865 996.754465,386.658712 C1089.96809,387.921559 1189.72218,317.37656 1253.87249,317.961303" opacity=".32" transform="translate(703.708335, 352.316578) rotate(8.450038) translate(-703.708335, -352.316578)"/>
    <path d="M143.308567,344.965049 C232.825851,364.051143 315.335799,373.740179 390.838408,374.032157 C504.092323,374.470125 572.969366,323.747673 661.335181,329.373875 C749.700997,335.000078 878.654127,384.480819 970.046838,385.717717 C1061.43955,386.954615 1159.24495,317.859171 1222.14209,318.431898" opacity=".3" transform="translate(682.725330, 352.081243) rotate(7.481455) translate(-682.725330, -352.081243)"/>
    <path d="M133.072954,344.879005 C220.849153,363.564691 301.754306,373.050461 375.788411,373.336314 C486.83957,373.765094 554.376974,324.106749 641.024099,329.614919 C727.671225,335.123089 854.116253,383.565773 943.731402,384.776722 C1033.34655,385.987671 1129.24966,318.341782 1190.92348,318.902494" opacity=".28" transform="translate(661.998215, 351.845908) rotate(6.540574) translate(-661.998215, -351.845908)"/>
    <path d="M122.837342,344.792961 C208.872456,363.07824 288.172813,372.360743 360.738414,372.64047 C469.586816,373.060062 535.784581,324.465824 620.713017,329.855962 C705.641452,335.2461 829.578379,382.650726 917.415965,383.835727 C1005.25355,385.020727 1099.25438,318.824392 1159.70486,319.373089" opacity=".26" transform="translate(641.271100, 351.610573) rotate(5.635747) translate(-641.271100, -351.610573)"/>
    <path d="M112.60173,344.706917 C196.938223,362.591788 274.672927,371.671024 345.805841,371.944627 C452.505212,372.35503 517.396013,324.8249 600.647677,330.097006 C683.899342,335.369111 805.389341,381.73568 891.49272,382.894732 C977.596099,384.053783 1069.74104,319.307003 1128.99802,319.843685" opacity=".24" transform="translate(620.799876, 351.375238) rotate(4.775005) translate(-620.799876, -351.375238)"/>
    <path d="M102.366118,344.620873 C185.046456,362.105336 261.254648,370.981306 330.990692,371.248783 C435.594758,371.649998 499.211268,325.183976 580.828081,330.338049 C662.444895,335.492123 781.549138,380.820634 865.961665,381.953737 C950.374193,383.086839 1040.70964,319.789614 1098.80297,320.31428" opacity=".22" transform="translate(600.584542, 351.139903) rotate(3.965988) translate(-600.584542, -351.139903)"/>
    <path d="M92.1305056,344.534829 C173.197155,361.618885 247.917975,370.291588 316.292967,370.55294 C418.855454,370.944967 481.230347,325.543051 561.254228,330.579093 C641.27811,335.615134 758.057771,379.905588 840.822802,381.012741 C923.587832,382.119895 1012.16018,320.272224 1069.11969,320.784875" opacity=".2" transform="translate(580.625098, 350.904568) rotate(3.215877) translate(-580.625098, -350.904568)"/>
    <path d="M81.8948934,344.448785 C161.390319,361.132433 234.66291,369.60187 301.712666,369.857096 C402.2873,370.239935 463.45325,325.902127 541.926119,330.820136 C620.398987,335.738145 734.915239,378.990541 816.076129,380.071746 C897.237018,381.152951 984.092668,320.754835 1039.9482,321.255471" opacity=".18" transform="translate(560.921545, 350.669233) rotate(2.531330) translate(-560.921545, -350.669233)"/>
    <path d="M71.6592812,344.548312 C149.583483,360.965022 221.407844,369.298948 287.132365,369.55009 C385.719145,369.926804 445.676154,326.298401 522.598009,331.137722 C599.519864,335.977043 711.772708,378.537401 791.329456,379.601306 C870.886203,380.665211 956.025155,321.233466 1010.7767,321.726091" opacity=".16" transform="translate(541.217991, 350.669233) rotate(1.918423) translate(-541.217991, -350.669233)"/>
    <path d="M61.4236689,344.647839 C137.819113,360.797611 208.234385,368.996026 272.669487,369.243084 C369.322141,369.613673 428.102881,326.694674 503.515642,331.455307 C578.928404,336.21594 688.979012,378.08426 766.974974,379.130866 C844.970935,380.177472 928.439586,321.712096 982.116987,322.196711" opacity=".14" transform="translate(521.770328, 350.669233) rotate(1.382596) translate(-521.770328, -350.669233)"/>
    <path d="M51.1880567,344.747366 C126.097208,360.630199 195.142534,368.693103 258.324034,368.936079 C353.096286,369.300541 410.733432,327.090948 484.679019,331.772893 C558.624607,336.454837 666.534152,377.631119 743.012682,378.660426 C819.491213,379.689732 901.33596,322.190726 953.969053,322.667331" opacity=".12" transform="translate(502.578555, 350.669233) rotate(0.928605) translate(-502.578555, -350.669233)"/>
    <path d="M40.9524445,344.846894 C114.375303,360.462788 182.050682,368.390181 243.978581,368.629073 C336.870431,368.98741 393.363983,327.487222 465.842396,332.090478 C538.320809,336.693735 644.089292,377.177978 719.050391,378.189985 C794.01149,379.201993 874.232334,322.669357 925.82112,323.137952" opacity=".1" transform="translate(483.386782, 350.669233) rotate(0.560481) translate(-483.386782, -350.669233)"/>
    <path d="M30.7168323,344.946421 C102.695863,360.295377 169.040437,368.087259 229.750552,368.322067 C320.815726,368.674279 376.198358,327.883495 447.251516,332.408064 C518.304674,336.932632 621.993268,376.724837 695.480291,377.719545 C768.967314,378.714254 847.610651,323.147987 898.184967,323.608572" opacity=".08" transform="translate(464.450900, 350.669233) rotate(0.281490) translate(-464.450900, -350.669233)"/>
    <path d="M20.4812201,345.045948 C91.0588896,360.127966 156.111799,367.784337 215.639947,368.015061 C304.932171,368.361148 359.236556,328.279769 428.906379,332.725649 C498.576201,337.17153 600.246079,376.271696 672.302381,377.249105 C744.358683,378.226514 821.470911,323.626617 871.060594,324.079192" opacity=".06" transform="translate(445.770907, 350.669233) rotate(0.094108) translate(-445.770907, -350.669233)"/>
    <path d="M10.2456079,345.145475 C79.4219157,359.960555 143.183161,367.481415 201.529342,367.708055 C289.048615,368.048016 342.274755,328.676043 410.561242,333.043235 C478.847728,337.410427 578.49889,375.818555 649.124471,376.778665 C719.750053,377.738775 795.331172,324.105248 843.936222,324.549812" opacity=".04"/>
    <path d="M0.00999571504,345.070838 C67.8235921,359.653019 130.328797,367.055649 187.525612,367.278727 C273.320833,367.613344 325.498466,328.86031 392.439769,333.158849 C459.381073,337.457387 557.069196,375.261727 626.303517,376.206743 C695.537837,377.15176 769.630076,324.36137 817.27765,324.798945" opacity=".02"/>
  </g>
</svg>
