<svg width="1920" height="80" viewBox="0 0 1920 80" xmlns="http://www.w3.org/2000/svg" xmlns:xlink="http://www.w3.org/1999/xlink"><defs><path id="a" d="M0 0h1920v80H0z"/></defs><g fill="none" fill-rule="evenodd"><mask id="b" fill="#fff"><use xlink:href="#a"/></mask><use fill="#0084FF" xlink:href="#a"/><path d="M1324.5 63a9.5 9.5 0 1 0 0 19 9.5 9.5 0 0 0 0-19m29.5-.5a5.5 5.5 0 1 0-11 0 5.5 5.5 0 0 0 11 0m5 15.5a1 1 0 1 0 0 2 1 1 0 0 0 0-2m-81 11a1 1 0 1 0 0 2 1 1 0 0 0 0-2m24.5-25a3.5 3.5 0 1 0 0 7 3.5 3.5 0 0 0 0-7m107 0a8.5 8.5 0 1 0 0 17 8.5 8.5 0 0 0 0-17m35.5-45c-7.18 0-13 5.82-13 13s5.82 13 13 13 13-5.82 13-13-5.82-13-13-13m35-37c-4.97 0-9 3.805-9 8.5s4.03 8.5 9 8.5 9-3.805 9-8.5-4.03-8.5-9-8.5m.5 19a3.5 3.5 0 1 0 0 7 3.5 3.5 0 0 0 0-7m-18 20a3.5 3.5 0 1 0 0-7 3.5 3.5 0 0 0 0 7m-37 7a3.5 3.5 0 1 0 0 7 3.5 3.5 0 0 0 0-7m38 15a3.5 3.5 0 1 0 0 7 3.5 3.5 0 0 0 0-7m60-6a3.5 3.5 0 1 0 0 7 3.5 3.5 0 0 0 0-7m-60 43a3.5 3.5 0 1 0 0 7 3.5 3.5 0 0 0 0-7M1442 90a5 5 0 1 0 0 10 5 5 0 0 0 0-10m55.5-9a8.5 8.5 0 1 0 0 17 8.5 8.5 0 0 0 0-17m54.5-93.5c0-12.979-10.521-23.5-23.5-23.5S1505-25.479 1505-12.5s10.521 23.5 23.5 23.5S1552 .479 1552-12.5M1644.5 0c-12.979 0-23.5 10.521-23.5 23.5s10.521 23.5 23.5 23.5 23.5-10.521 23.5-23.5S1657.479 0 1644.5 0m-13-66c12.979 0 23.5-10.521 23.5-23.5s-10.521-23.5-23.5-23.5-23.5 10.521-23.5 23.5 10.521 23.5 23.5 23.5m29.5 32c5.523 0 10-4.477 10-10s-4.477-10-10-10-10 4.477-10 10 4.477 10 10 10m-76 114a1 1 0 1 0 0 2 1 1 0 0 0 0-2m66-105.5a3.5 3.5 0 1 0 7 0 3.5 3.5 0 0 0-7 0M1575.5-83a3.5 3.5 0 1 0 0 7 3.5 3.5 0 0 0 0-7m14 66a8.5 8.5 0 1 0 0 17 8.5 8.5 0 0 0 0-17m-36-47a8.5 8.5 0 1 0 0 17 8.5 8.5 0 0 0 0-17M1550 36.5a8.5 8.5 0 1 0-17 0 8.5 8.5 0 0 0 17 0m64.5 41.5a8.5 8.5 0 1 0 0 17 8.5 8.5 0 0 0 0-17m-62 3a8.5 8.5 0 1 0 0 17 8.5 8.5 0 0 0 0-17m98-1a5.5 5.5 0 1 0 0 11 5.5 5.5 0 0 0 0-11m15-28a3.5 3.5 0 1 0-.001 6.999A3.5 3.5 0 0 0 1665.5 52m7-45a3.5 3.5 0 1 0-.001 6.999A3.5 3.5 0 0 0 1672.5 7m17.5-63c-8.284 0-15 6.716-15 15 0 8.284 6.716 15 15 15 8.284 0 15-6.716 15-15 0-8.284-6.716-15-15-15M1349.5 72a5.5 5.5 0 1 0 0 11 5.5 5.5 0 0 0 0-11M358.573 8.108c12.616 0 22.843-10.227 22.843-22.843 0-12.615-10.227-22.843-22.843-22.843S335.73-27.35 335.73-14.735c0 12.616 10.227 22.843 22.843 22.843m117.259 29.04c-16.946 0-30.684 13.739-30.684 30.685 0 16.947 13.738 30.684 30.684 30.684 16.947 0 30.684-13.737 30.684-30.684 0-16.946-13.737-30.684-30.684-30.684m-42.836-14.66a8.523 8.523 0 1 0 0 17.047 8.523 8.523 0 0 0 0-17.047M422.943 93.56a2.898 2.898 0 1 0 0 5.795 2.898 2.898 0 0 0 0-5.795M307.678 17.17a6.819 6.819 0 1 0 0-13.637 6.819 6.819 0 0 0 0 13.637m-7.305 46.57a5.114 5.114 0 1 0-10.228 0 5.114 5.114 0 0 0 10.228 0m240.747 3.211a5.114 5.114 0 1 0-10.228 0 5.114 5.114 0 0 0 10.228 0m39.514 5.313c0-5.46-4.427-9.887-9.887-9.887-5.46 0-9.887 4.427-9.887 9.887 0 5.46 4.426 9.887 9.887 9.887 5.46 0 9.887-4.426 9.887-9.887m-6.478 23.184c-5.46 0-9.887 4.426-9.887 9.887 0 5.46 4.426 9.887 9.887 9.887 5.46 0 9.887-4.427 9.887-9.887 0-5.46-4.426-9.887-9.887-9.887m33.241-13.979a4.603 4.603 0 1 0 0 9.206 4.603 4.603 0 0 0 0-9.206m-64.777 20.456a4.603 4.603 0 1 0 0 9.206 4.603 4.603 0 0 0 0-9.206m-22.161-1.363a8.694 8.694 0 1 0 0 17.388 8.694 8.694 0 0 0 0-17.388m9.874-16.365a1.534 1.534 0 1 0 0 3.068 1.534 1.534 0 0 0 0-3.068M300.028-17.275a6.819 6.819 0 1 0-13.638 0 6.819 6.819 0 0 0 13.638 0M257.558-24C247.861-24 240-16.139 240-6.442s7.86 17.558 17.558 17.558c9.697 0 17.558-7.861 17.558-17.558S267.255-24 257.558-24m111.343 67.968a8.523 8.523 0 1 0 17.046 0 8.523 8.523 0 0 0-17.046 0m-44.147 4.22c6.12 0 11.08-4.96 11.08-11.08s-4.96-11.08-11.08-11.08-11.08 4.96-11.08 11.08 4.96 11.08 11.08 11.08m81.167-3.251c-9.98 0-18.07 8.09-18.07 18.07 0 9.979 8.09 18.069 18.07 18.069s18.07-8.09 18.07-18.07-8.09-18.07-18.07-18.07m-63.954 17.442c-26.926 0-48.754 21.828-48.754 48.754 0 26.925 21.828 48.753 48.754 48.753s48.753-21.828 48.753-48.753c0-26.926-21.827-48.754-48.753-48.754" fill="#00A1FE" mask="url(#b)"/></g></svg>