<svg id="Layer_1" xmlns="http://www.w3.org/2000/svg" viewBox="0 0 512 512"><path d="M346.951 471.135L281.6 438.46V247.467a8.533 8.533 0 0 0-8.533-8.533h-34.133a8.533 8.533 0 0 0-8.533 8.533V438.46l-65.35 32.676c-12.326 6.161-19.983 18.549-19.983 32.331a8.533 8.533 0 0 0 8.533 8.533h204.8a8.533 8.533 0 0 0 8.533-8.533c-.001-13.782-7.657-26.17-19.983-32.332z" fill="#fdd349"/><path d="M162.133 503.467c0-13.781 7.657-26.17 19.983-32.332l65.35-32.675V247.467a8.533 8.533 0 0 1 8.533-8.533h-17.067a8.533 8.533 0 0 0-8.533 8.533V438.46l-65.35 32.676c-12.326 6.161-19.983 18.549-19.983 32.331a8.533 8.533 0 0 0 8.533 8.533h17.067a8.534 8.534 0 0 1-8.533-8.533z" fill="#fcaf27"/><g fill="#ff8b1b"><path d="M383.999 179.202a8.536 8.536 0 0 1-2.697-16.632l53.46-17.82a25.57 25.57 0 0 0 17.505-24.287V93.867c0-14.115-11.485-25.6-25.6-25.6H384a8.533 8.533 0 0 1 0-17.066h42.667c23.526 0 42.667 19.14 42.667 42.667v26.598a42.614 42.614 0 0 1-29.174 40.477l-53.461 17.821a8.598 8.598 0 0 1-2.7.438zM128.001 179.202a8.571 8.571 0 0 1-2.7-.439l-53.46-17.82a42.615 42.615 0 0 1-29.174-40.478V93.867c0-23.526 19.14-42.667 42.667-42.667H128a8.533 8.533 0 0 1 0 17.066H85.333c-14.115 0-25.6 11.485-25.6 25.6v26.598a25.571 25.571 0 0 0 17.505 24.288l53.46 17.819a8.534 8.534 0 0 1-2.697 16.631z"/></g><path d="M384 51.2H128a8.533 8.533 0 0 0-8.533 8.533v102.4c0 75.284 61.248 136.533 136.533 136.533s136.533-61.249 136.533-136.533v-102.4A8.533 8.533 0 0 0 384 51.2z" fill="#fdd349"/><path d="M145.067 162.133v-102.4A8.533 8.533 0 0 1 153.6 51.2H128a8.533 8.533 0 0 0-8.533 8.533v102.4c0 75.284 61.248 136.533 136.533 136.533 4.317 0 8.585-.211 12.8-.605-69.305-6.474-123.733-64.96-123.733-135.928z" fill="#fcaf27"/><path d="M332.979 149.796a8.532 8.532 0 0 0-8.115-5.897h-46.407l-14.341-44.137a8.53 8.53 0 0 0-8.115-5.897 8.531 8.531 0 0 0-8.115 5.895l-14.341 44.137h-46.407a8.531 8.531 0 1 0-5.015 15.436l37.545 27.278-14.34 44.137a8.531 8.531 0 0 0 3.1 9.539 8.53 8.53 0 0 0 10.031 0L256 213.012l37.545 27.277c3.189 2.319 7.682 2.107 10.644-.492 2.535-2.224 3.53-5.84 2.487-9.049l-14.34-44.137 37.545-27.278a8.528 8.528 0 0 0 3.098-9.537z" fill="#ff5800"/><path d="M409.6 0H102.4a8.533 8.533 0 0 0-8.533 8.533v51.2a8.533 8.533 0 0 0 8.533 8.533h307.2a8.533 8.533 0 0 0 8.533-8.533v-51.2A8.533 8.533 0 0 0 409.6 0z" fill="#fde265"/><g fill="#fcaf27"><path d="M409.6 0h-59.733v68.267H409.6a8.533 8.533 0 0 0 8.533-8.533v-51.2A8.533 8.533 0 0 0 409.6 0zM102.4 0a8.533 8.533 0 0 0-8.533 8.533v51.2a8.533 8.533 0 0 0 8.533 8.533h196.267V0H102.4z"/></g><path d="M119.467 59.733v-51.2A8.533 8.533 0 0 1 128 0h-25.6a8.533 8.533 0 0 0-8.533 8.533v51.2a8.533 8.533 0 0 0 8.533 8.533H128a8.532 8.532 0 0 1-8.533-8.533z" fill="#ff8b1b"/><g fill="#fdeda4"><circle cx="341.333" cy="213.333" r="21.333"/><circle cx="358.4" cy="162.133" r="12.8"/></g><g fill="#659c2f"><path d="M428.8 401.067l21.76-29.013a8.532 8.532 0 1 0-6.827-13.654h-102.4a8.533 8.533 0 0 0-8.533 8.533V435.2a8.533 8.533 0 0 0 8.533 8.533h102.4a8.532 8.532 0 0 0 6.827-13.654l-21.76-29.012zM170.667 358.4h-102.4a8.532 8.532 0 0 0-6.827 13.654l21.76 29.013-21.76 29.013a8.532 8.532 0 1 0 6.827 13.654h102.4a8.533 8.533 0 0 0 8.533-8.533v-68.267a8.534 8.534 0 0 0-8.533-8.534z"/></g><path d="M392.533 324.267H119.467a8.533 8.533 0 0 0-8.533 8.533v68.267a8.533 8.533 0 0 0 8.533 8.533h273.067a8.533 8.533 0 0 0 8.533-8.533V332.8a8.533 8.533 0 0 0-8.534-8.533z" fill="#94c54b"/><g fill="#ff8b1b"><path d="M494.933 247.467c-14.115 0-25.6-11.485-25.6-25.6a8.533 8.533 0 0 0-17.066 0c0 14.115-11.485 25.6-25.6 25.6a8.533 8.533 0 0 0 0 17.066c14.115 0 25.6 11.485 25.6 25.6a8.533 8.533 0 0 0 17.066 0c0-14.115 11.485-25.6 25.6-25.6a8.533 8.533 0 0 0 8.533-8.533 8.532 8.532 0 0 0-8.533-8.533zM85.333 247.467c-14.115 0-25.6-11.485-25.6-25.6a8.533 8.533 0 0 0-17.066 0c0 14.115-11.485 25.6-25.6 25.6a8.533 8.533 0 0 0 0 17.066c14.115 0 25.6 11.485 25.6 25.6a8.533 8.533 0 0 0 17.066 0c0-14.115 11.485-25.6 25.6-25.6A8.533 8.533 0 0 0 93.866 256a8.532 8.532 0 0 0-8.533-8.533z"/></g></svg>