<svg id="Capa_1" xmlns="http://www.w3.org/2000/svg" viewBox="0 0 60 60"><path fill="#7ed09e" d="M3 42.5h10v14H3z"/><path fill="#71c285" d="M18 33.5h10v23H18z"/><path fill="#4fba6f" d="M33 25.5h10v31H33z"/><path fill="#24ae5f" d="M48 17.5h10v39H48z"/><path d="M59 57.5H1a1 1 0 1 1 0-2h58a1 1 0 1 1 0 2z" fill="#556080"/><path d="M8.03 27.83a1 1 0 0 1-.501-1.866L46.5 3.464a1 1 0 1 1 1 1.732l-38.971 22.5a.995.995 0 0 1-.499.134z" fill="#bdc3c7"/><path d="M47.001 5.33a1.11 1.11 0 0 1-.098-.005l-8.562-.83a1 1 0 0 1-.898-1.092.995.995 0 0 1 1.092-.898l8.562.83a1 1 0 0 1-.096 1.995z" fill="#bdc3c7"/><path d="M43.437 13.16a1 1 0 0 1-.91-1.414l3.562-7.83a1 1 0 1 1 1.82.828l-3.562 7.83a.998.998 0 0 1-.91.586z" fill="#bdc3c7"/></svg>