<svg xmlns="http://www.w3.org/2000/svg" viewBox="0 0 168 168" width="168" height="168" aria-hidden="true">
  <defs>
    <linearGradient id="bn-2-a" x1="323" y1="5.49" x2="323" y2="100.76" gradientTransform="rotate(-15.75 480.671604 858.076613)" gradientUnits="userSpaceOnUse">
      <stop offset="0" stop-color="#ad4936"></stop>
      <stop offset=".4" stop-color="#ad4936" stop-opacity=".99"></stop>
      <stop offset=".55" stop-color="#ad4936" stop-opacity=".95"></stop>
      <stop offset=".65" stop-color="#ad4936" stop-opacity=".88"></stop>
      <stop offset=".74" stop-color="#ad4936" stop-opacity=".78"></stop>
      <stop offset=".81" stop-color="#ad4936" stop-opacity=".66"></stop>
      <stop offset=".87" stop-color="#ad4936" stop-opacity=".5"></stop>
      <stop offset=".93" stop-color="#ad4936" stop-opacity=".31"></stop>
      <stop offset=".98" stop-color="#ad4936" stop-opacity=".1"></stop>
      <stop offset="1" stop-color="#ad4936" stop-opacity="0"></stop>
    </linearGradient>
  </defs>
  <circle cx="84.16" cy="84.09" r="23.61" fill="#fff" opacity=".5"></circle>
  <path fill="none" stroke="#fff" stroke-miterlimit="10" d="M84.16 60.48v6.99m-23.6 16.62h6.99m33.23 0h6.99M67.47 67.4l4.94 4.94m28.45-4.94l-4.95 4.94"></path>
  <circle cx="84.16" cy="84.09" r="4.72" fill="#fff"></circle>
  <path d="M84.75 85.54a1.56 1.56 0 0 1-1.17-2.9l17.51-5.44s.08.06 0 .08z" fill="#fff" stroke="#fff" stroke-miterlimit="10"></path>
  <rect x="58.33" y="67.75" width="11.61" height="11.61" rx=".28" ry=".28" fill="#fff" stroke="#fff" stroke-miterlimit="10"></rect>
  <path d="M67.48 67.75v-5.94c0-1.65-1.92-2.57-3.34-2.57s-3.35.92-3.35 2.57v5.94" fill="none" stroke="#fff" stroke-miterlimit="10" stroke-width="2"></path>
  <path d="M106.86 107.75h-.21c.11 0 .25 0 0 0h-1.33 1.52z"></path>
  <path d="M137.48 168s-7-20.8-7.41-24.21 1.1-14.37-1.16-20.3-3.22-12.68-5.23-15.75c-1.75-2.67-5.75-2.32-5.66-1.39-.71-2-1.65-4.13-2.91-5-2.06-1.39-6.4.4-6.13 1.36a11.79 11.79 0 0 0-2.57-4.25c-1.51-1.29-6.71-.32-6.52.5-.78-2.14-1.44-4-1.74-4.83-.91-2.68-4.18-12.87-6.9-12.1s-.46 10.12.26 13.45c.57 2.61 2.61 11.31 3.72 16.31-1.56-2.4-3.85-4.36-5.31-4.12-1.85.32-.14 5.23.6 9s.38 8.6 1.31 11.88c1 3.59 5.63 13.71 10.26 18.17 5.77 5.55 11 21.27 11 21.27z" fill="url(#bn-2-a)"></path>
  <path d="M94.49 109.62s.74 2.18.74 2.19c.31 1.39.56 2.49.68 3.09.57 2.75 1.63 9.83 4.81 15m7.9-28.38s.35 1.24.36 1.25c.12.27.25.54.39.8.89 1.73 1.83 5.63 3.71 7.94m6.01-2c-.27-.7-.91-2.72-1.37-4m-12.67 8.69a18.16 18.16 0 0 0-1-4.54s-2.46-6.88-4.16-11.55" fill="none" stroke="#28317b" stroke-miterlimit="10"></path>
  <path d="M168 41.66h-50.2c0-6.23 5.77-13.16 14-11.29 0 0 1.11-12.75 14.94-12.75s14.16 15.54 14.16 15.54 7.1 0 7.1 8.5z" fill="#f6f7f7" opacity=".15"></path>
  <path d="M50.2 65.69H0c0-6.22 5.78-13.15 14.05-11.28 0 0 1.11-12.75 14.94-12.75S43.15 57.2 43.15 57.2s7.05 0 7.05 8.49z" fill="#f6f7f7" opacity=".3"></path>
  <path d="M56.83 144.87H6.63c0-6.22 5.78-13.15 14.05-11.28 0 0 1.1-12.75 14.94-12.75s14.15 15.54 14.15 15.54 7.06 0 7.06 8.49z" fill="#f6f7f7" opacity=".15"></path>
  <path d="M125.63 85h-17.86v-2h24.4c.87-3.48 4-11 14.62-11 13.79 0 14.15 15.55 14.15 15.55S168 87.53 168 96h-50.2a12 12 0 0 1 7.83-11zM83.29 24h-50.2c0-6.23 5.78-13.16 14-11.29 0 0 1.11-12.75 14.94-12.75s14.21 15.59 14.21 15.59 7.05 0 7.05 8.45zm-7.76 38.11L62.62 24.04h2.11l12.69 37.42-1.89.65z" fill="#f6f7f7" opacity=".3"></path>
  <path fill="#f6f7f7" opacity=".15" d="M101.44 68l-1.42-1.41 25.13-24.93h2.84L101.44 68z"></path>
  <path fill="#f6f7f7" opacity=".3" d="M66.32 76.32L44.98 65.69h4.49l17.74 8.84-.89 1.79z"></path>
  <path fill="#f6f7f7" opacity=".15" d="M44.82 124.25l-1.57-1.26 23.33-23.14 1.4 1.43-23.16 22.97z"></path>
</svg>