<svg aria-hidden="true" xmlns="http://www.w3.org/2000/svg" width="168" height="168" viewBox="0 0 168 168">
         <defs>
            <linearGradient id="bn-1-a" x1="18.57" x2="18.57" y1="111.59" y2="168" gradientUnits="userSpaceOnUse">
               <stop offset="0" stop-color="#ad4936"></stop>
               <stop offset=".4" stop-color="#ad4936" stop-opacity=".99"></stop>
               <stop offset=".55" stop-color="#ad4936" stop-opacity=".95"></stop>
               <stop offset=".65" stop-color="#ad4936" stop-opacity=".88"></stop>
               <stop offset=".74" stop-color="#ad4936" stop-opacity=".78"></stop>
               <stop offset=".81" stop-color="#ad4936" stop-opacity=".66"></stop>
               <stop offset=".87" stop-color="#ad4936" stop-opacity=".5"></stop>
               <stop offset=".93" stop-color="#ad4936" stop-opacity=".31"></stop>
               <stop offset=".98" stop-color="#ad4936" stop-opacity=".1"></stop>
               <stop offset="1" stop-color="#ad4936" stop-opacity="0"></stop>
            </linearGradient>
         </defs>
         <g fill="#fff">
            <circle cx="107.05" cy="20.23" r="20.23" opacity=".5"></circle>
            <circle cx="107.05" cy="20.23" r="5.8"></circle>
            <circle cx="11.17" cy="43.07" r="11.16"></circle>
            <circle cx="157.02" cy="88.75" r="11.16"></circle>
            <path d="M68.3 71H38.8a15.2 15.2 0 0 1 29.6 0z" opacity=".5"></path>
            <path d="M148.2 144.2h-20.3a10.4 10.4 0 0 1 20.3 0zm-62-25.3V92.7l10.5 13L86.3 119z"></path>
            <path d="M145.1 150.6h-38.9l19.5-15.5 19.4 15.5z" opacity=".5"></path>
            <circle cx="11.17" cy="111.59" r="5.8"></circle>
            <circle cx="11.17" cy="111.59" r="11.16" opacity=".5"></circle>
         </g>
         <g fill="none" stroke="#fff" stroke-miterlimit="10" stroke-width="2">
            <circle cx="107.05" cy="20.23" r="13.47"></circle>
            <path stroke-dasharray="10 5" d="M107 20.2h61"></path>
            <path d="M157 0l-4.6 1.9"></path>
            <path stroke-dasharray="11.8 5.9" d="M146.9 4.1l-13.7 5.5"></path>
            <path d="M130.4 10.8l-4.6 1.8m0 15.2l4.6 1.9"></path>
            <path stroke-dasharray="11.8 5.9" d="M136 32l13.7 5.5"></path>
            <path d="M152.4 38.6l4.6 1.9M86.8 20.2H34a22.8 22.8 0 0 0-22.9 22.9A22.8 22.8 0 0 0 34 65.9h100.2A22.8 22.8 0 0 1 157 88.7a22.8 22.8 0 0 1-22.8 22.9H22.3"></path>
         </g>
         <path d="M24.8 139h-.2s.2 0 0 0h-1.3 1.5z"></path>
         <path fill="url(#bn-1-a)" d="M36.5 168H1.7A57.4 57.4 0 0 1 0 156.5c0-3.4 1.7-8 2-11.8s0-9 1.9-8.8c1.4.2 3.1 2.7 4 5.4l.8-16.7c.2-3.4.6-13 3.4-13s3.2 10.7 3.4 13.5l.3 5.2c0-.9 5.3-.4 6.4 1.2 1 1.4 1 3.2 1.4 4.8 0-1 4.6-1.5 6.2.4 1 1.1 1.3 3.5 1.5 5.6.1-1 4-.2 5 2.8 1.1 3.5.2 10.3.8 16.6a22.2 22.2 0 0 1-.6 6.3z"></path>
         <path fill="none" stroke="#094677" stroke-miterlimit="10" d="M7.7 139l.1 2.3-.1 3.2c-.2 2.8-1.1 9.9.5 15.7m15.3-25.1v1.2l.2 1c.4 1.8.2 5.8 1.4 8.6m6.3-.3l-.2-4.2m-14.6 4.9a18.2 18.2 0 0 0 .3-4.7l-.9-12.2"></path>
      </svg>