<svg xmlns="http://www.w3.org/2000/svg" viewBox="0 0 168 168" width="168" height="168" aria-hidden="true">
  <defs>
     <linearGradient id="bn-3-a" x1="91.85" y1="87.57" x2="168" y2="87.57" gradientUnits="userSpaceOnUse">
       <stop offset="0" stop-color="#ad4936"></stop>
       <stop offset=".4" stop-color="#ad4936" stop-opacity=".99"></stop>
       <stop offset=".55" stop-color="#ad4936" stop-opacity=".95"></stop>
       <stop offset=".65" stop-color="#ad4936" stop-opacity=".88"></stop>
       <stop offset=".74" stop-color="#ad4936" stop-opacity=".78"></stop>
       <stop offset=".81" stop-color="#ad4936" stop-opacity=".66"></stop>
       <stop offset=".87" stop-color="#ad4936" stop-opacity=".5"></stop>
       <stop offset=".93" stop-color="#ad4936" stop-opacity=".31"></stop>
       <stop offset=".98" stop-color="#ad4936" stop-opacity=".1"></stop>
       <stop offset="1" stop-color="#ad4936" stop-opacity="0"></stop>
     </linearGradient>
   </defs>
   <path d="M62.44 126.83c-.2-.07-.55.53-1 1.2a.59.59 0 0 1-.08.11c-.13.17-.27.33-.42.51a5 5 0 0 1-.87.79 2.8 2.8 0 0 1-.69.35c-.82.25-1.78.08-2.92-1.06a3 3 0 0 1-1.13-2.67 2.19 2.19 0 0 1 .29-.73 4.73 4.73 0 0 1 1.16-1.33l.56-.43c.1-.07.2-.13.27-.19l.43-.31c.22-.19.33-.34.24-.43l-6.52-6.52 6.52-6.52a.09.09 0 0 1 .07 0 1.54 1.54 0 0 1 .45.47c.11.15.23.31.35.49a2.55 2.55 0 0 1 .21.28c.15.19.3.39.47.58a5.19 5.19 0 0 0 .92.83 2.67 2.67 0 0 0 .41.22 2 2 0 0 0 .84.2 34.32 34.32 0 0 1 7 20.66l-6.45-6.46zM7 154.11a34.21 34.21 0 0 1-7-20.68l6.49 6.49c.19.19.56-.45 1.12-1.21l.05-.06.41-.51a3.08 3.08 0 0 1 2.37-1.28 2.38 2.38 0 0 1 .75.17 4.43 4.43 0 0 1 1.4 1 4.8 4.8 0 0 1 .87 1.14 2.28 2.28 0 0 1 .28 1 1.22 1.22 0 0 1 0 .27 2.47 2.47 0 0 1-.34 1 5.43 5.43 0 0 1-1.19 1.29c-.29.23-.58.43-.83.61l-.43.31a1.32 1.32 0 0 0-.27.3v.06a.06.06 0 0 0 0 .07l6.51 6.51-6.51 6.51a.11.11 0 0 1-.14 0c-.09 0-.19-.15-.33-.31a1.89 1.89 0 0 1-.22-.31c-.1-.12-.2-.27-.31-.42s-.2-.25-.29-.38-.1-.12-.15-.18a4.27 4.27 0 0 0-1.49-1.25 2 2 0 0 0-.75-.21m32.13 1.23a3.17 3.17 0 0 0-1.13 2.41 2.18 2.18 0 0 0 .18.71 4.25 4.25 0 0 0 1.07 1.36c.19.16.38.32.57.45l.76.54a2.44 2.44 0 0 1 .42.37.25.25 0 0 1 0 .07.06.06 0 0 1 0 .06v.08l-6.51 6.51-6.49-6.46c-.09-.09-.24 0-.43.24l-.31.42-.19.27a7.1 7.1 0 0 1-.43.57 4.89 4.89 0 0 1-1.34 1.22l-.22.12a2.16 2.16 0 0 1-.49.16 2.41 2.41 0 0 1-.54 0 2.72 2.72 0 0 1-1.43-.54s-.07 0-.09-.08a5.71 5.71 0 0 1-.63-.54c-.22-.23-.41-.45-.58-.66a2.93 2.93 0 0 1-.58-1.49 2.32 2.32 0 0 1 0-.53 1.17 1.17 0 0 1 .07-.25 2.7 2.7 0 0 1 .35-.7 5 5 0 0 1 .79-.87l.54-.44h.06c.69-.51 1.29-.87 1.22-1.07v-.06l-6.51-6.5 6.52-6.52h.07a1.55 1.55 0 0 1 .46.47c.16.22.34.49.56.77s.3.39.46.58a5.22 5.22 0 0 0 .93.83 4 4 0 0 0 .41.23 2.25 2.25 0 0 0 1.3.17 3.75 3.75 0 0 0 1.9-1.17 3.32 3.32 0 0 0 1.13-2.15 1.22 1.22 0 0 0 0-.27 2.37 2.37 0 0 0-.19-.74 1.36 1.36 0 0 0-.13-.24 5 5 0 0 0-1.19-1.31l-.06-.06-.54-.39a1.64 1.64 0 0 0-.26-.2l-.43-.31c-.22-.19-.33-.34-.24-.43l6.51-6.51 6.53 6.52a.19.19 0 0 0 .13 0 1.43 1.43 0 0 0 .3-.28c.09-.12.2-.25.31-.42A3.16 3.16 0 0 0 42 139c.13-.19.28-.38.43-.57a5 5 0 0 1 1.33-1.22l.24-.12a2.46 2.46 0 0 1 .48-.16h.26a1.22 1.22 0 0 1 .27 0 2.78 2.78 0 0 1 1.45.54s.06 0 .08.07a5 5 0 0 1 .63.54 5.64 5.64 0 0 1 .58.67 2.5 2.5 0 0 1 .54 2 2 2 0 0 1-.07.26 2.37 2.37 0 0 1-.35.69 5.12 5.12 0 0 1-.79.88l-.52.42-.1.07c-.74.55-1.38.92-1.19 1.11l6.52 6.52-6.51 6.52h-.14a1.15 1.15 0 0 1-.33-.32 2.94 2.94 0 0 1-.22-.3l-.31-.43c-.09-.12-.19-.24-.28-.38l-.15-.18a4.63 4.63 0 0 0-1.5-1.25c-.92-.44-1.97-.36-3.22.91zM6.79 119.61a3.29 3.29 0 0 0-2.17 1.15c-1.48 1.49-1.35 2.69-.7 3.63a6.4 6.4 0 0 0 .82.9l.5.4.14.11.65.47a.13.13 0 0 1 .07.06 1.35 1.35 0 0 1 .44.42.09.09 0 0 1 0 .07v.05L0 133.36A34.39 34.39 0 0 1 10.12 109a33.86 33.86 0 0 1 3.65-3.16 2.19 2.19 0 0 1 0 .36 1.82 1.82 0 0 1-.07.25 2.52 2.52 0 0 1-.36.69 4.73 4.73 0 0 1-.79.88l-.51.42-.11.08c-.74.55-1.37.92-1.18 1.11l6.52 6.52-6.51 6.52c-.09.09-.23 0-.42-.24L10 122l-.2-.27a6.48 6.48 0 0 0-.43-.56 5.28 5.28 0 0 0-1.13-1.08 2.09 2.09 0 0 0-.43-.25.73.73 0 0 0-.22-.09l-.29-.08a1.71 1.71 0 0 0-.51-.06z" fill="#fff" opacity=".5"></path>
   <path d="M58.87 109a34.16 34.16 0 0 1 3.18 3.66 2 2 0 0 1-.84-.2 2.67 2.67 0 0 1-.41-.22 5.19 5.19 0 0 1-.92-.83l-.47-.58a2.55 2.55 0 0 0-.21-.28c-.12-.18-.24-.35-.35-.49a1.25 1.25 0 0 0-.45-.47h-.07c-.07 0 0 0 0 0l-6.52 6.52-6.51-6.51a.11.11 0 0 1 0-.13 1 1 0 0 1 .27-.29l.41-.31.82-.61a5 5 0 0 0 1.08-1.12 2.3 2.3 0 0 0 .25-.43.73.73 0 0 0 .09-.22c0-.1.06-.2.08-.29a2.92 2.92 0 0 0-1.11-2.68 3.34 3.34 0 0 0-2.19-1.17 2.12 2.12 0 0 0-1 .21 4.61 4.61 0 0 0-1.36 1.1 5.19 5.19 0 0 0-.36.46.87.87 0 0 0-.09.11l-.53.71c-.27.36-.46.58-.59.45l-6.53-6.49A34.4 34.4 0 0 1 58.87 109zM7 154.11h.1a2 2 0 0 1 .75.21 4.27 4.27 0 0 1 1.49 1.25c0 .06.1.13.15.18s.19.26.29.38.21.3.31.42a1.89 1.89 0 0 0 .22.31c.14.16.24.29.33.31a.12.12 0 0 0 .13 0l6.51-6.52 6.51 6.5v.06a.26.26 0 0 1 0 .11 1.27 1.27 0 0 1-.26.27l-.44.33-.28.2-.18.14h-.06l-.54.44a5 5 0 0 0-.79.87 2.7 2.7 0 0 0-.35.7 1.17 1.17 0 0 0-.07.25 1.87 1.87 0 0 0 0 .53 2.66 2.66 0 0 0 .07.39 1.71 1.71 0 0 0 .09.3 1.92 1.92 0 0 0 .18.39 3.44 3.44 0 0 0 .24.39 5.51 5.51 0 0 0 .58.67 4.22 4.22 0 0 0 .63.53s0 .05.09.08l.28.18.15.07a2.65 2.65 0 0 0 .61.22 2.09 2.09 0 0 0 .34 0 2.41 2.41 0 0 0 .54 0 2.16 2.16 0 0 0 .49-.16l.22-.12a5 5 0 0 0 1.34-1.22 7.1 7.1 0 0 0 .43-.57l.19-.27.31-.42c.19-.23.34-.33.43-.24l6.47 6.47a34.34 34.34 0 0 1-24.33-10.09A31.5 31.5 0 0 1 7 154.12m48.25 6.44a1.42 1.42 0 0 0 0 .36 34.29 34.29 0 0 1-20.66 6.92l6.41-6.48a.11.11 0 0 0 0-.06.06.06 0 0 0 0-.06.25.25 0 0 0 0-.07 1.64 1.64 0 0 0-.42-.37l-.76-.54q-.28-.21-.57-.45a4.25 4.25 0 0 1-1.07-1.36 1.91 1.91 0 0 1-.18-.71 3.15 3.15 0 0 1 1.16-2.43c1.26-1.26 2.32-1.35 3.18-.94a4.41 4.41 0 0 1 1.5 1.25l.15.18c.09.14.19.26.28.38l.31.43a2.94 2.94 0 0 0 .22.3 1.15 1.15 0 0 0 .33.32h.13l6.52-6.53 6.52 6.52v.11a1.55 1.55 0 0 1-.47.46c-.21.15-.47.32-.74.53l-.07.06c-.18.13-.37.28-.55.44a5.07 5.07 0 0 0-.79.88 2.31 2.31 0 0 0-.35.68c-.04.01-.06.1-.08.18zM29.87 146a3.57 3.57 0 0 1-1.87 1.14 2.25 2.25 0 0 1-1.3-.17 4 4 0 0 1-.41-.23 5.22 5.22 0 0 1-.93-.83c-.17-.2-.32-.39-.46-.58s-.41-.56-.56-.77-.34-.43-.46-.47-.05 0-.07 0l-6.52 6.52-6.51-6.52a.11.11 0 0 1 0-.12 1.32 1.32 0 0 1 .27-.3l.43-.31c.25-.18.54-.38.83-.61a5.43 5.43 0 0 0 1.19-1.29 2.47 2.47 0 0 0 .34-1 .61.61 0 0 0 0-.27 3.27 3.27 0 0 0-1.21-2.19 3.34 3.34 0 0 0-2.16-1.15 3.08 3.08 0 0 0-2.37 1.28l-.41.51-.05.06c-.56.75-.93 1.39-1.13 1.19L0 133.39l6.52-6.52v-.12c0-.07-.2-.25-.44-.42a.13.13 0 0 0-.07-.06l-.65-.47-.14-.11-.5-.4a6.4 6.4 0 0 1-.82-.9c-.63-.94-.75-2.14.72-3.62a3.46 3.46 0 0 1 2.15-1.16 2.92 2.92 0 0 1 .51 0l.29.08a2 2 0 0 1 .22.09 2.09 2.09 0 0 1 .43.25 5.27 5.27 0 0 1 1.13 1.08 6.48 6.48 0 0 1 .43.56l.2.27.31.43c.19.21.33.33.42.24l6.53-6.53 6.51 6.51a.33.33 0 0 1 0 .06c-.08.22-.63.56-1.24 1-.2.15-.39.31-.58.47a3.07 3.07 0 0 0-1.25 2.34 3.34 3.34 0 0 0 1.15 2.16 3.34 3.34 0 0 0 2.17 1.29 2.23 2.23 0 0 0 1.25-.32 5.19 5.19 0 0 0 1.34-1.22c.23-.29.44-.58.62-.84s.21-.29.29-.4a1.26 1.26 0 0 1 .32-.29.09.09 0 0 1 .07 0h.06l6.52 6.52L28 139.9c-.09.09 0 .24.24.43l.43.31a1.64 1.64 0 0 1 .26.2l.54.39.06.06a5 5 0 0 1 1.19 1.31 1.36 1.36 0 0 1 .13.24 2.24 2.24 0 0 1 .19.74 1.22 1.22 0 0 1 0 .27 3.23 3.23 0 0 1-1.17 2.15z" fill="#fff" opacity=".5"></path>
   <path d="M39.14 120.76a3.79 3.79 0 0 0-1.14 1.87 2 2 0 0 0 0 .82 1.9 1.9 0 0 0 .15.46 4.08 4.08 0 0 0 1.06 1.36 6.15 6.15 0 0 0 .58.46l.27.21c.5.36.89.63 1 .82l-6.51 6.52-6.55-6.41h-.06a.09.09 0 0 0-.07 0 1.26 1.26 0 0 0-.32.29c-.08.11-.18.26-.29.4s-.39.55-.62.84a5 5 0 0 1-1.34 1.22 2.23 2.23 0 0 1-1.25.32 3.42 3.42 0 0 1-2.15-1.16 3.34 3.34 0 0 1-1.16-2.15 3.07 3.07 0 0 1 1.26-2.37l.58-.47c.65-.48 1.22-.82 1.24-1a.33.33 0 0 0 0-.06l-6.53-6.52 6.53-6.53c.17 0 .45.38.85.92l.28.38a6.38 6.38 0 0 0 .42.52 5.4 5.4 0 0 0 .87.79 2.22 2.22 0 0 0 .69.34c.81.28 1.79.1 2.94-1a3.79 3.79 0 0 0 1-1.58 1.71 1.71 0 0 0 .1-.57 2.1 2.1 0 0 0-.19-1 6.44 6.44 0 0 0-2.17-2.2c-.49-.35-.83-.6-.68-.75l6.51-6.5 6.56 6.39c.12.12.32-.1.59-.48.16-.2.33-.44.53-.71a.87.87 0 0 1 .09-.11 4.82 4.82 0 0 1 .36-.46 4.61 4.61 0 0 1 1.36-1.1 2.24 2.24 0 0 1 1-.21 3.46 3.46 0 0 1 2.15 1.16 3 3 0 0 1 1.12 2.67c0 .09 0 .19-.08.29a.85.85 0 0 1-.09.22 2.3 2.3 0 0 1-.25.43 5 5 0 0 1-1.08 1.12c-.29.23-.57.44-.82.61l-.41.31a1 1 0 0 0-.27.29v.14l6.53 6.53-6.51 6.51a.1.1 0 0 1-.12 0c-.15-.05-.37-.35-.66-.75a5.81 5.81 0 0 0-2.4-2.22l-.25-.07a3 3 0 0 0-2.65 1.17zM69 133.42a34.28 34.28 0 0 1-10.09 24.32 32.88 32.88 0 0 1-3.65 3.17 2.07 2.07 0 0 1 0-.35c0-.08 0-.17.07-.26a3.13 3.13 0 0 1 .35-.68 5.07 5.07 0 0 1 .79-.88c.18-.16.37-.31.55-.44l.07-.06.74-.53c.26-.19.44-.34.47-.46v-.11l-6.52-6.52 6.51-6.51h.13a3.88 3.88 0 0 1 .82 1l.21.29c.13.19.29.37.45.56a4.18 4.18 0 0 0 1.33 1.04 1.38 1.38 0 0 0 .46.15 2.2 2.2 0 0 0 .52 0h.28a3.59 3.59 0 0 0 1.88-1.15 2.93 2.93 0 0 0 1.12-2.67.77.77 0 0 0-.07-.26 5.76 5.76 0 0 0-2.21-2.39c-.39-.28-.69-.49-.75-.65a.12.12 0 0 1 0-.14l6.5-6.5z" fill="#fff" opacity=".5"></path>
   <path d="M116.41 125.25a4.72 4.72 0 0 1-1.21.91l-.23.09a1.73 1.73 0 0 1-.43.12h-.29a1.49 1.49 0 0 1-.52 0 1.46 1.46 0 0 1-.46-.15 3.9 3.9 0 0 1-1.36-1.07c-.17-.19-.32-.38-.46-.56a3.4 3.4 0 0 0-.21-.28c-.37-.53-.64-.94-.82-1a.09.09 0 0 0-.06 0l-6.53 6.53-6.5-6.51c-.16-.15.24-.43.81-.84l.35-.27.1-.08a6.38 6.38 0 0 0 .52-.42 4.73 4.73 0 0 0 .79-.88 2.27 2.27 0 0 0 .36-.69 1.82 1.82 0 0 0 .07-.25 2.14 2.14 0 0 0-.1-1.21 3 3 0 0 0-.44-.81 2.5 2.5 0 0 0-.26-.33 3.18 3.18 0 0 0-.31-.34 2.8 2.8 0 0 0-.32-.29 2 2 0 0 0-.32-.25.27.27 0 0 0-.08-.07 2.7 2.7 0 0 0-.48-.28 2.56 2.56 0 0 0-1-.26 1.22 1.22 0 0 0-.27 0h-.26a2.56 2.56 0 0 0-.49.16l-.24.12a5.36 5.36 0 0 0-1.33 1.23c-.15.19-.3.38-.43.56l-.19.27-.31.42a1.2 1.2 0 0 1-.31.28.13.13 0 0 1-.12 0l-6.51-6.52 6.52-6.52a.08.08 0 0 0 0-.06c0-.15-.32-.36-.7-.63a3.15 3.15 0 0 0-.27-.19l-.27-.21q-.28-.21-.57-.45a4 4 0 0 1-1.07-1.37 2.47 2.47 0 0 1-.15-.46 2 2 0 0 1 0-.82 2.54 2.54 0 0 1 .12-.43l.09-.23a4.72 4.72 0 0 1 .91-1.21 3.38 3.38 0 0 1 2.08-1.15 1.6 1.6 0 0 1 .31 0 1.35 1.35 0 0 1 .29 0 .72.72 0 0 1 .25.07 2.33 2.33 0 0 1 .7.36 2.6 2.6 0 0 1 .33.25 7.49 7.49 0 0 1 1.14 1.28l.23.32c.29.4.51.71.66.76h.07l6.52-6.52 6.51 6.51c.09.1 0 .25-.24.43s-.25.2-.42.31l-.27.2q-.28.19-.57.42a5.36 5.36 0 0 0-1.22 1.34 2.17 2.17 0 0 0-.28.73 1 1 0 0 0 0 .29 3.07 3.07 0 0 0 1.15 2.39 3.22 3.22 0 0 0 2.29 1.16 2.06 2.06 0 0 0 .65-.11 1.22 1.22 0 0 0 .35-.14 2.33 2.33 0 0 0 .34-.2 5.57 5.57 0 0 0 .88-.79 6.21 6.21 0 0 0 .41-.52.38.38 0 0 0 .08-.11c.09-.11.17-.22.24-.32.38-.52.65-.9.82-.87a.09.09 0 0 1 .06 0l6.51 6.51-6.52 6.52a.11.11 0 0 0 0 .13c0 .15.35.36.74.64l.32.23a7.66 7.66 0 0 1 1.29 1.15 3.49 3.49 0 0 1 .25.32 2.42 2.42 0 0 1 .35.7.72.72 0 0 1 .07.25 1.35 1.35 0 0 1 0 .29 1.61 1.61 0 0 1 0 .31 3.38 3.38 0 0 1-1.13 2.11z" fill="#fff"></path>
   <path d="M29.87 111.49c-1.13 1.14-2.1 1.32-2.92 1.06a2.77 2.77 0 0 1-.69-.34 5.4 5.4 0 0 1-.87-.79l-.42-.52-.28-.38c-.4-.55-.68-1-.85-.92l-6.53 6.53-6.51-6.52c-.19-.19.43-.56 1.16-1.11l.11-.08c.16-.13.34-.26.51-.42a4.73 4.73 0 0 0 .79-.88 2.27 2.27 0 0 0 .36-.69 1.82 1.82 0 0 0 .07-.25 1.5 1.5 0 0 0 0-.37 34.34 34.34 0 0 1 20.7-6.92l-6.5 6.5c-.15.15.19.4.68.75a6.19 6.19 0 0 1 2.17 2.2 2.1 2.1 0 0 1 .19 1 2 2 0 0 1-.1.57 4.25 4.25 0 0 1-1.07 1.58z" fill="#fff" opacity=".5"></path>
   <path d="M168 56.55v26.89c-2.55 3.38-6 8.37-10 11.7-7.66 6.27-11.48 6.89-17.93 9-4.62 1.52-17.69 14.59-18.51 14.45s-1.87-1.83-1.17-5.45 4.72-7.83 8.49-11.19c2.22-2 3.48-6.06 3.6-8.14.14-2.38-1.65-5.73-2.87-5.72s-11.93 2.91-14.09 3.65c-1 .37-11.23 8.17-13.93 9.27-2.52 1-5.41.74-6 0-.89-1.14 4-5.55 7.53-10.18a32.8 32.8 0 0 1-5.62 3.45c-1.9.92-5.26.9-5.64-.21S104.22 83 105.54 81.8 123 76 125.6 74.93s25.4-8.65 29.8-10.43c2.87-1.16 7.43-4.18 12.6-7.95z" fill="url(#bn-3-a)"></path>
   <path d="M99.65 94.06c3.27-3.56 8.64-8.43 9.07-8.86 1-1.06 16.83-6.31 18.33-6.71" fill="none" stroke="#48137c" stroke-miterlimit="10"></path>
   <circle cx="104.97" cy="23.64" r="6.8" fill="#f6f7f7" opacity=".3"></circle>
   <circle cx="71.93" cy="78.44" r="6.8" fill="#f6f7f7" opacity=".3"></circle>
   <circle cx="161.19" cy="6.92" r="6.8" fill="#f6f7f7" opacity=".3"></circle>
   <path d="M111.6 22.11c13.56-3.46 27.15-2.61 43.49-12.2m-82.7 61.73C74.13 58.37 76.48 45 89 34a54.91 54.91 0 0 1 10-7m-40.13 82c7.06-7 9.92-15.22 11.57-23.92" fill="none" stroke="#fff" stroke-miterlimit="10" stroke-width="2"></path>
   <path d="M0 133.43l6.49 6.49c.19.19.56-.45 1.12-1.21l.05-.06.41-.51a3.08 3.08 0 0 1 2.37-1.28 2.38 2.38 0 0 1 .75.17 4.43 4.43 0 0 1 1.4 1 4.8 4.8 0 0 1 .87 1.14 2.28 2.28 0 0 1 .28 1 1.22 1.22 0 0 1 0 .27 2.47 2.47 0 0 1-.34 1 5.43 5.43 0 0 1-1.19 1.29c-.29.23-.58.43-.83.61l-.43.31a1.32 1.32 0 0 0-.27.3v.06a.06.06 0 0 0 0 .07l6.51 6.51-6.51 6.51a.11.11 0 0 1-.14 0c-.09 0-.19-.15-.33-.31a1.89 1.89 0 0 1-.22-.31c-.1-.12-.2-.27-.31-.42s-.2-.25-.29-.38-.1-.12-.15-.18a4.27 4.27 0 0 0-1.49-1.25 2 2 0 0 0-.75-.21m44.74-3.4l-6.51 6.52h-.14a1.15 1.15 0 0 1-.33-.32 2.94 2.94 0 0 1-.22-.3l-.31-.43c-.09-.12-.19-.24-.28-.38l-.15-.18a4.63 4.63 0 0 0-1.5-1.25c-.87-.39-1.92-.29-3.17 1a3.17 3.17 0 0 0-1.13 2.38 2.18 2.18 0 0 0 .18.71 4.25 4.25 0 0 0 1.07 1.36c.19.16.38.32.57.45l.76.54a2.44 2.44 0 0 1 .42.37.25.25 0 0 1 0 .07.06.06 0 0 1 0 .06v.08l-6.51 6.51-6.49-6.46c-.09-.09-.24 0-.43.24l-.31.42-.19.27a7.1 7.1 0 0 1-.43.57 4.89 4.89 0 0 1-1.34 1.22l-.22.12a2.16 2.16 0 0 1-.49.16 2.41 2.41 0 0 1-.54 0 2.72 2.72 0 0 1-1.43-.54s-.07 0-.09-.08a5.71 5.71 0 0 1-.63-.54c-.22-.23-.41-.45-.58-.66a2.93 2.93 0 0 1-.58-1.49 2.32 2.32 0 0 1 0-.53 1.17 1.17 0 0 1 .07-.25 2.7 2.7 0 0 1 .35-.7 5 5 0 0 1 .79-.87l.54-.44h.06c.69-.51 1.29-.87 1.22-1.07v-.06l-6.51-6.5 6.52-6.52h.07a1.55 1.55 0 0 1 .46.47c.16.22.34.49.56.77s.3.39.46.58a5.22 5.22 0 0 0 .93.83 4 4 0 0 0 .41.23 2.25 2.25 0 0 0 1.3.17 3.75 3.75 0 0 0 1.9-1.17 3.32 3.32 0 0 0 1.13-2.15 1.22 1.22 0 0 0 0-.27 2.37 2.37 0 0 0-.19-.74 1.36 1.36 0 0 0-.13-.24 5 5 0 0 0-1.19-1.31l-.06-.06-.54-.39a1.64 1.64 0 0 0-.26-.2l-.43-.31c-.22-.19-.33-.34-.24-.43l6.51-6.51m-20.7-27.56a2.19 2.19 0 0 1 0 .36 1.82 1.82 0 0 1-.07.25 2.52 2.52 0 0 1-.36.69 4.73 4.73 0 0 1-.79.88l-.51.42-.11.08c-.74.55-1.37.92-1.18 1.11l6.52 6.52-6.51 6.52c-.09.09-.23 0-.42-.24L10 122l-.2-.27a6.48 6.48 0 0 0-.43-.56 5.28 5.28 0 0 0-1.13-1.08 2.09 2.09 0 0 0-.43-.25.73.73 0 0 0-.22-.09l-.29-.08a1.71 1.71 0 0 0-.51 0 3.29 3.29 0 0 0-2.17 1.15c-1.48 1.49-1.35 2.69-.7 3.63a6.4 6.4 0 0 0 .82.9l.5.4.14.11.65.47a.13.13 0 0 1 .07.06 1.35 1.35 0 0 1 .44.42.09.09 0 0 1 0 .07v.05L0 133.36m62.05-20.71a2 2 0 0 1-.84-.2 2.67 2.67 0 0 1-.41-.22 5.19 5.19 0 0 1-.92-.83l-.47-.58a2.55 2.55 0 0 0-.21-.28c-.12-.18-.24-.35-.35-.49a1.25 1.25 0 0 0-.45-.47h-.07c-.07 0 0 0 0 0l-6.52 6.52-6.51-6.51a.11.11 0 0 1 0-.13 1 1 0 0 1 .27-.29l.41-.31.82-.61a5 5 0 0 0 1.08-1.12 2.3 2.3 0 0 0 .25-.43.73.73 0 0 0 .09-.22c0-.1.06-.2.08-.29a2.92 2.92 0 0 0-1.11-2.68 3.34 3.34 0 0 0-2.19-1.16 2.12 2.12 0 0 0-1 .21 4.61 4.61 0 0 0-1.36 1.1 5.19 5.19 0 0 0-.36.46.87.87 0 0 0-.09.11l-.53.71c-.27.36-.46.58-.59.45l-6.53-6.49" fill="none" stroke="#fff" stroke-miterlimit="10"></path>
   <path d="M10.73 157.16l6.51-6.52 6.51 6.5v.06a.26.26 0 0 1 0 .11 1.27 1.27 0 0 1-.26.27l-.44.33-.28.2-.18.14h-.06l-.54.44a5 5 0 0 0-.79.87 2.7 2.7 0 0 0-.35.7 1.17 1.17 0 0 0-.07.25 1.87 1.87 0 0 0 0 .53 2.66 2.66 0 0 0 .07.39 1.71 1.71 0 0 0 .09.3 1.92 1.92 0 0 0 .18.39 3.44 3.44 0 0 0 .24.39 5.51 5.51 0 0 0 .58.67 4.22 4.22 0 0 0 .63.53s0 .05.09.08l.28.18.15.07a2.65 2.65 0 0 0 .61.22 2.09 2.09 0 0 0 .34 0 2.41 2.41 0 0 0 .54 0 2.16 2.16 0 0 0 .49-.16l.22-.12a5 5 0 0 0 1.34-1.22 7.1 7.1 0 0 0 .43-.57l.19-.27.31-.42c.19-.23.34-.33.43-.24l6.47 6.47m.09.11l6.45-6.48a.11.11 0 0 0 0-.06.06.06 0 0 0 0-.06.25.25 0 0 0 0-.07 1.64 1.64 0 0 0-.42-.37l-.76-.54q-.28-.21-.57-.45a4.25 4.25 0 0 1-1.07-1.36 1.91 1.91 0 0 1-.18-.71 3.15 3.15 0 0 1 1.16-2.43c1.26-1.26 2.32-1.35 3.18-.94a4.41 4.41 0 0 1 1.5 1.25l.15.18c.09.14.19.26.28.38l.31.43a2.94 2.94 0 0 0 .22.3 1.15 1.15 0 0 0 .33.32h.13l6.52-6.53 6.52 6.52v.06M29.87 146a3.57 3.57 0 0 1-1.87 1.14 2.25 2.25 0 0 1-1.3-.17 4 4 0 0 1-.41-.23 5.22 5.22 0 0 1-.93-.83c-.17-.2-.32-.39-.46-.58s-.41-.56-.56-.77-.34-.43-.46-.47-.05 0-.07 0l-6.52 6.52-6.51-6.52a.11.11 0 0 1 0-.12 1.32 1.32 0 0 1 .27-.3l.43-.31c.25-.18.54-.38.83-.61a5.43 5.43 0 0 0 1.19-1.29 2.47 2.47 0 0 0 .34-1 .61.61 0 0 0 0-.27 3.27 3.27 0 0 0-1.21-2.19 3.34 3.34 0 0 0-2.16-1.15 3.08 3.08 0 0 0-2.37 1.28l-.41.51-.05.06c-.56.75-.93 1.39-1.13 1.19L0 133.39l6.52-6.52v-.12c0-.07-.2-.25-.44-.42a.13.13 0 0 0-.07-.06l-.65-.47-.14-.11-.5-.4a6.4 6.4 0 0 1-.82-.9c-.63-.94-.75-2.14.72-3.62a3.46 3.46 0 0 1 2.15-1.16 2.92 2.92 0 0 1 .51 0l.29.08a2 2 0 0 1 .22.09 2.09 2.09 0 0 1 .43.25 5.27 5.27 0 0 1 1.13 1.08 6.48 6.48 0 0 1 .43.56l.2.27.31.43c.19.21.33.33.42.24l6.53-6.53 6.51 6.51a.33.33 0 0 1 0 .06c-.08.22-.63.56-1.24 1-.2.15-.39.31-.58.47a3.07 3.07 0 0 0-1.25 2.34 3.34 3.34 0 0 0 1.15 2.16 3.34 3.34 0 0 0 2.17 1.29 2.23 2.23 0 0 0 1.25-.32 5.19 5.19 0 0 0 1.34-1.22c.23-.29.44-.58.62-.84s.21-.29.29-.4a1.26 1.26 0 0 1 .32-.29.09.09 0 0 1 .07 0h.06l6.52 6.52L28 139.9c-.09.09 0 .24.24.43l.43.31a1.64 1.64 0 0 1 .26.2l.54.39.06.06a5 5 0 0 1 1.19 1.31 1.36 1.36 0 0 1 .13.24 2.24 2.24 0 0 1 .19.74 1.22 1.22 0 0 1 0 .27 3.23 3.23 0 0 1-1.17 2.15z" fill="none" stroke="#fff" stroke-miterlimit="10"></path>
   <path d="M34.51 133.4L28 126.87h-.06a.09.09 0 0 0-.07 0 1.26 1.26 0 0 0-.32.29c-.08.11-.18.26-.29.4s-.39.55-.62.84a5 5 0 0 1-1.34 1.22 2.23 2.23 0 0 1-1.25.32 3.42 3.42 0 0 1-2.15-1.16 3.34 3.34 0 0 1-1.16-2.15 3.07 3.07 0 0 1 1.26-2.37l.58-.47c.65-.48 1.22-.82 1.24-1a.33.33 0 0 0 0-.06l-6.53-6.52 6.53-6.53c.17 0 .45.38.85.92l.28.38a6.38 6.38 0 0 0 .42.52 5.4 5.4 0 0 0 .87.79 2.22 2.22 0 0 0 .69.34c.81.28 1.79.1 2.94-1a3.79 3.79 0 0 0 1-1.58 1.71 1.71 0 0 0 .1-.57 2.1 2.1 0 0 0-.19-1 6.44 6.44 0 0 0-2.17-2.2c-.49-.35-.83-.6-.68-.75l6.51-6.5 6.56 6.39c.12.12.32-.1.59-.48.16-.2.33-.44.53-.71a.87.87 0 0 1 .09-.11 4.82 4.82 0 0 1 .36-.46 4.61 4.61 0 0 1 1.36-1.1 2.24 2.24 0 0 1 1-.21 3.46 3.46 0 0 1 2.15 1.16 3 3 0 0 1 1.12 2.67c0 .09 0 .19-.08.29a.85.85 0 0 1-.09.22 2.3 2.3 0 0 1-.25.43 5 5 0 0 1-1.08 1.12c-.29.23-.57.44-.82.61l-.41.31a1 1 0 0 0-.27.29v.14l6.53 6.53m3.49 44.79a2.07 2.07 0 0 1 0-.35c0-.08 0-.17.07-.26a3.13 3.13 0 0 1 .35-.68 5.07 5.07 0 0 1 .79-.88c.18-.16.37-.31.55-.44l.07-.06.74-.53c.26-.19.44-.34.47-.46v-.11" fill="none" stroke="#fff" stroke-miterlimit="10"></path>
   <path d="M34.48 98.9L28 105.39c-.15.15.19.4.68.75a6.19 6.19 0 0 1 2.17 2.2 2.1 2.1 0 0 1 .19 1 2 2 0 0 1-.1.57 4.25 4.25 0 0 1-1.06 1.57c-1.13 1.14-2.1 1.32-2.92 1.06a2.77 2.77 0 0 1-.69-.34 5.4 5.4 0 0 1-.87-.79l-.42-.52-.28-.38c-.4-.55-.68-1-.85-.92l-6.53 6.53-6.51-6.52" fill="none" stroke="#fff" stroke-miterlimit="10"></path>
 </svg>