<svg aria-hidden="true" xmlns="http://www.w3.org/2000/svg" xmlns:xlink="http://www.w3.org/1999/xlink" width="294" height="270" viewBox="0 0 294 270">
  <defs>
    <g id="svg-field" transform="translate(0 16)">
      <rect width="168" height="40" fill="#FFF" fill-rule="evenodd" rx="4"></rect>
      <rect width="166" height="38" x="1" y="1" stroke="#E9EBEB" stroke-width="2" rx="4"></rect>
    </g>
    <g id="svg-caret" fill="#0E1E25" opacity=".9" transform="translate(136 28)">
      <path id="caret" d="M4 5l3.4 3.4c.3.4.9.4 1.2 0L11.9 5 14 7.2l-5.4 5.6c-.3.3-.9.3-1.2 0L2 7.2 4 5z"></path>
    </g>
    <g id="svg-checkmark">
      <mask id="svg-checkmark-mask" fill="#fff">
        <path d="M12 22.5a10.5 10.5 0 1 1 0-21 10.5 10.5 0 0 1 0 21zm-2.6-6.4c.5.5 1.5.6 2 0l1-1 5.3-5.2c.4-.5.4-1.2 0-1.7l-.4-.4c-.5-.4-1.2-.4-1.7 0L10.4 13l-2-2c-.5-.5-1.2-.5-1.6 0l-.5.4c-.4.5-.4 1.2 0 1.6l2 2 1 1z"></path>
      </mask>
      <g fill="#0051C1" fill-rule="evenodd" mask="url(#svg-checkmark-mask)">
        <path d="M0 0h24v24H0z"></path>
      </g>
    </g>
  </defs>
  <g fill="none" fill-rule="evenodd" transform="translate(0 -2)">
    <path fill="#0051C1" fill-opacity=".08" fill-rule="nonzero" d="M0 167.6c-1.7-44.5 25.7-84.7 57.1-115 20.7-19.9 44.1-37.5 71-45.8 27-8.4 58-6.3 81 10.5 11.3 8.4 20.2 19.9 29.6 30.7 10.2 11.8 21.1 23.1 29 36.8a61.3 61.3 0 0 1 8 45.5c-5 18.7-21.6 31.3-38.2 40.3-16.5 8.9-34.6 15.9-47.9 29.6-18 18.6-25.3 46-49 59-16.6 9-42.8 15.3-61.7 11.8C37.4 263.4 1.8 208.7 0 167.6zm257.8 9c11-3.6 23.8-3.1 29.8 2.9 19.4 19.6-10 38.1-28.3 34h-.2c-18-4.1-18.8-31-1.3-36.8z" opacity=".640342"></path>
  </g>
</svg>