<svg aria-hidden="true" xmlns="http://www.w3.org/2000/svg" xmlns:xlink="http://www.w3.org/1999/xlink" width="294" height="270" viewBox="0 0 294 270">
  <defs>
    <filter id="svg-grayscale">
      <feColorMatrix type="saturate" values="0"></feColorMatrix>
    </filter>
    <symbol id="svg-button" fill="#FFF">
      <rect width="200" height="40" filter="url(#svg-button-shadow)" rx="4"></rect>
      <rect width="199" height="39" x="1" y="1" stroke="#E1E3E3" rx="4"></rect>
      <filter id="svg-button-shadow" width="107%" height="135%" x="-4%" y="-13%" filterUnits="objectBoundingBox">
        <feOffset dy="2" in="SourceAlpha" result="shadowOffsetOuter1"></feOffset>
        <feGaussianBlur in="shadowOffsetOuter1" result="shadowBlurOuter1" stdDeviation="2"></feGaussianBlur>
        <feComposite in="shadowBlurOuter1" in2="SourceAlpha" operator="out" result="shadowBlurOuter1"></feComposite>
        <feColorMatrix in="shadowBlurOuter1" values="0 0 0 0 0.0549019608 0 0 0 0 0.117647059 0 0 0 0 0.145098039 0 0 0 0.12 0"></feColorMatrix>
      </filter>
    </symbol>
    <linearGradient id="gradient-bitbucket" x1="99.872911%" x2="46.600994%" y1="26.560079%" y2="75.20479%">
      <stop offset="0%" stop-color="#1B4AAA" stop-opacity=".4"></stop>
      <stop offset="99.940211%" stop-color="#1B4AAA"></stop>
    </linearGradient>
  </defs>
  <path fill="#0051C1" fill-opacity=".08" d="M60 17c-12 2-24 4-31 15-8 12-8 30-6 46s6 33 3 48c-5 24-25 39-26 64-1 17 9 33 21 42s26 10 40 8c53-7 95-63 149-64 24-1 53 9 71-10 15-16 17-45 7-67-16-38-62-60-92-72-45-16-91-17-136-10" opacity=".640342"></path>
 
</svg>