<svg xmlns="http://www.w3.org/2000/svg" viewBox="0 0 168 168" width="168" height="168" aria-hidden="true">
  <path d="M168 17.51V167a1 1 0 0 1-1 1H1a1 1 0 0 1-1-1V17.51z" fill="#c9f5f2"></path>
  <path d="M168 2v15.51H0V2a2 2 0 0 1 2-2h164a2 2 0 0 1 2 2z" fill="#00aea0"></path>
  <circle cx="13.07" cy="8.75" r="2.57" fill="#a8009c"></circle>
  <circle cx="24.52" cy="8.75" r="2.57" fill="#6f0084"></circle>
  <circle cx="35.97" cy="8.75" r="2.57" fill="#005d70"></circle>
  <path d="M134.57 42.18v50.57h-19.32c-2.57 0-3.25-3.41-2.49-5.4a2.64 2.64 0 0 1 1.1-1.26 8.39 8.39 0 1 0-9.16 0 2.71 2.71 0 0 1 1.1 1.27c.76 2 .08 5.4-2.49 5.4H84V73.44c0-2.57-3.4-3.25-5.4-2.49a2.71 2.71 0 0 0-1.27 1.1 8.37 8.37 0 1 1 0-9.16A2.64 2.64 0 0 0 78.6 64c2 .76 5.4.08 5.4-2.49V42.18z" fill="#00aea0"></path>
  <path d="M62 68.5a8.37 8.37 0 0 0 15.32 3.55A2.71 2.71 0 0 1 78.6 71c2-.76 5.4-.08 5.4 2.49v19.26H64.69c-2.57 0-3.25 3.4-2.49 5.4a2.71 2.71 0 0 0 1.1 1.27 8.37 8.37 0 1 1-9.16 0 2.64 2.64 0 0 0 1.1-1.26c.76-2 .08-5.4-2.49-5.4H33.43V42.18H84V61.5c0 2.57-3.41 3.25-5.4 2.49a2.64 2.64 0 0 1-1.26-1.1A8.38 8.38 0 0 0 62 68.5z" fill="#00aea0"></path>
  <path d="M97.68 126.41a8.41 8.41 0 0 1-7-3.8 2.64 2.64 0 0 0-1.26-1.1c-2-.76-5.4-.08-5.4 2.49v19.32H33.43V92.75h19.32c2.57 0 3.25 3.41 2.49 5.4a2.64 2.64 0 0 1-1.1 1.26 8.39 8.39 0 1 0 9.16 0 2.71 2.71 0 0 1-1.1-1.27c-.76-2-.08-5.4 2.49-5.4H84v19.31c0 2.57 3.4 3.25 5.4 2.49a2.71 2.71 0 0 0 1.27-1.1 8.38 8.38 0 1 1 7 13z" fill="#00aea0"></path>
  <path d="M84 42.18V61.5c0 2.57-3.41 3.25-5.4 2.49a2.64 2.64 0 0 1-1.26-1.1 8.39 8.39 0 1 0 0 9.16A2.71 2.71 0 0 1 78.6 71c2-.76 5.4-.08 5.4 2.49v19.26H64.69c-2.57 0-3.25 3.4-2.49 5.4a2.71 2.71 0 0 0 1.1 1.27 8.37 8.37 0 1 1-9.16 0 2.64 2.64 0 0 0 1.1-1.26c.76-2 .08-5.4-2.49-5.4H33.43" fill="none" stroke="#005d70" stroke-miterlimit="10" stroke-width="1.5"></path>
  <path d="M134.57 92.75v50.57H84V124c0-2.57 3.41-3.25 5.4-2.49a2.64 2.64 0 0 1 1.26 1.1 8.39 8.39 0 1 0 0-9.16 2.71 2.71 0 0 1-1.27 1.1c-2 .76-5.4.08-5.4-2.49V92.75h19.31c2.57 0 3.25-3.4 2.49-5.4a2.71 2.71 0 0 0-1.1-1.27 8.37 8.37 0 1 1 9.16 0 2.64 2.64 0 0 0-1.1 1.26c-.76 2-.08 5.4 2.49 5.4z" fill="#00aea0" opacity=".5"></path>
  <path fill="none" stroke="#005d70" stroke-miterlimit="10" stroke-width="1.5" d="M84 143.32v-4"></path>
  <path d="M84 136.33V124c0-2.57 3.41-3.25 5.4-2.49a2.64 2.64 0 0 1 1.26 1.1 8.39 8.39 0 1 0 0-9.16 2.71 2.71 0 0 1-1.27 1.1c-2 .76-5.4.08-5.4-2.49V98.24" fill="none" stroke="#005d70" stroke-miterlimit="10" stroke-width="1.5" stroke-dasharray="7.977778 2.991667"></path>
  <path fill="none" stroke="#005d70" stroke-miterlimit="10" stroke-width="1.5" d="M84 96.75v-4h4"></path>
  <path d="M91 92.75h12.32c2.57 0 3.25-3.4 2.49-5.4a2.71 2.71 0 0 0-1.1-1.27 8.37 8.37 0 1 1 9.16 0 2.64 2.64 0 0 0-1.1 1.26c-.76 2-.08 5.4 2.49 5.4h13.82" fill="none" stroke="#005d70" stroke-miterlimit="10" stroke-width="1.5" stroke-dasharray="7.977812 2.991679"></path>
  <path fill="none" stroke="#005d70" stroke-miterlimit="10" stroke-width="1.5" d="M130.57 92.75h4"></path>
  <path fill="#a8009c" d="M141.55 137.77l-12.53 12.53-3.09-15.62 15.62 3.09z"></path>
  <path fill="#a8009c" d="M130.194796 142.251062l3.30926-3.30926 9.701505 9.701505-3.30926 3.30926z"></path>
  <path fill="none" stroke="#6f0084" stroke-miterlimit="10" d="M115.89 124.63l7.55 7.56m-9.03 3.97l7.92 2.12m5.08-15.13l2.12 7.93"></path>
</svg>